<?xml version="1.0" encoding="utf-8"?>
<!-- Generator: Adobe Illustrator 24.3.0, SVG Export Plug-In . SVG Version: 6.00 Build 0)  -->
<svg version="1.1" xmlns="http://www.w3.org/2000/svg" xmlns:xlink="http://www.w3.org/1999/xlink" x="0px" y="0px"
	 viewBox="0 0 946 404" style="enable-background:new 0 0 946 404;" xml:space="preserve">
<style type="text/css">
	.st0{display:none;}
	.st1{fill:#595E87;}
	.st2{fill:#B2645B;}
	.st3{fill:#F7CE9A;}
	.st4{fill:#CB7D6B;}
	.st5{fill:#2D3257;}
	.st6{fill:#424242;}
	.st7{fill:#777777;}
	.st8{opacity:0.28;}
</style>
<g id="Capa_1" class="st0">
	
		<image style="display:inline;overflow:visible;" width="3979" height="1699" xlink:href="../../../Portfolio/Proyectos_recopilados/lletres/fotos/IMG-5754.jpg"  transform="matrix(1 0 0 1 505.8723 907.7021)">
	</image>
</g>
<g id="Capa_3">
</g>
<g id="Capa_2">
	<g>
		<path class="st1" d="M945.3,401.1c-66.2-4-227.1-13-289.8-12c-0.4,0-0.6,0.3-0.6,0.7l0.3,11.8c0,0.4-0.3,0.7-0.6,0.7L302.8,404
			c-0.4,0-0.7-0.3-0.7-0.7l0.1-11.9c0-0.4-0.3-0.6-0.6-0.7c-53.8-0.4-233.7,5.9-300.8,11.4c-0.4,0-0.7-0.3-0.7-0.6V294.7
			c0-0.4,0.3-0.6,0.7-0.6l304.2,1.4c0.3,0,0.6-0.3,0.6-0.6l1.4-54c0-0.3,0.3-0.6,0.6-0.6h341.2c0.4,0,0.6,0.3,0.6,0.6l1.2,52.6
			c0,0.4,0.3,0.6,0.6,0.6h293.2c0.4,0,0.6,0.3,0.6,0.6l0.8,105.8C946,400.8,945.7,401.1,945.3,401.1z"/>
		<rect x="318.2" y="250.4" class="st2" width="321.3" height="141"/>
		<path class="st3" d="M935.7,391.4c0,0-160-12.7-460.4-12.7C268.1,378.7,13,391.4,13,391.4v-88.7c0,0,346,1.7,461.3,1.7
			s461.3-1.7,461.3-1.7V391.4z"/>
		<g>
			<g>
				<path class="st4" d="M37.5,317.1h33.9v4.2c0,0-4.9,0.1-4.9,3.6c0,1.1,12.1,33.7,12.8,33.7c0.3,0,21.9-31.6,21.9-34.1
					c0-2.9-4.8-3.3-4.8-3.3l0.2-3.9l27,0.5v4c-2.8,0-4.5,0.6-9.1,8.2c-5.2,8.6-31.3,47.9-31.3,47.9l-20.6,0.7
					c-3.1-7.9-13.3-34.8-18.6-48.6c-2.1-5.5-2.9-8.9-6.8-8.9C37.2,321.2,37.5,317.1,37.5,317.1"/>
				<path class="st4" d="M141.5,321.9l0.2-4.4c0,0,61.9,1,74.2,1c0,0-0.9,11.7-0.9,11.7l-8.7,0.3c0,0-1.4-4.8-6.4-4.8
					s-30.9-0.3-30.9-0.3l-1.2,14.1c0,0,20.4,0,24.6,0c4.2,0,6.3-3.8,6.3-3.8l7.3-0.1l-1.2,14.2h-7.8c0,0,0.3-4.1-5.1-4.1
					s-24.7,0.3-24.7,0.3l-2.2,21.6c0,0,25-1,33.2-1c8.2,0,8.6-6.7,8.6-6.7l8.6-0.1l-1.2,12.8l-77.7,2.6l0.2-3.8c0,0,5.7,0.2,6.3-5.2
					s3.5-34.3,3.9-39.3C147.6,321.9,141.5,321.9,141.5,321.9z"/>
				<path class="st4" d="M732.9,321.1l-0.3-4.1c0,0,60.5,0.4,72.8,0.4c0,0,0.7,12.1,0.7,12.1l-8.7,0.3c0,0-1.4-4.8-6.4-4.8
					s-30.6-0.2-30.6-0.2l0.7,13.6c0,0,19.4,0.6,23.6,0.6c4.2,0,6.3-3.8,6.3-3.8l7.3-0.1l1.1,14.9h-7.4c0,0-0.9-4.6-6.3-4.6
					c-5.4,0-24.1-0.2-24.1-0.2l1.3,21.2c0,0,24.3,1.3,32.5,1.3c8.2,0,7.8-6.3,7.8-6.3l8.6-0.1l0.8,14.1l-76.5-3.6l0.2-3.8
					c0,0,5.3,0.6,5.1-5.6c-0.2-5.5-2.1-30.4-2.1-35.4C739.7,321.4,732.9,321.1,732.9,321.1z"/>
				<path class="st4" d="M235.8,318.5h31.4v3.7c0,0-4.6,0.1-4.8,3.3c-0.2,3.2-2.5,38.5-2.5,38.5s18.3-0.3,26.8-0.4
					c8.5-0.1,9-7.7,9-7.7l8.7,0l-0.7,14.4l-69.7,1.2v-3c0,0,4.5-0.7,4.9-4.2l2.6-36.3c0.1-5.6-6-5.7-6-5.7L235.8,318.5z"/>
				<path class="st4" d="M418.2,367.2l-0.3-2.8c0,0-5.2,0.2-9.6-5.7c-4.2-5.7-17.7-21.7-19.5-24.1c0,0,0,0,0,0L378.1,319l-21.8,0.2
					c0,0-8.3,14.5-9.2,16.1c-0.9,1.5-13.7,19.7-17.5,26c-3.8,6.2-8.9,6.1-8.9,6.1v2.8l31-0.7l-0.1-3.2c0,0-6.3,0.1-6.3-3.4
					c0-3.5,6.6-11.7,6.6-11.7c1.5,0,26.1-0.3,26.1-0.3s8.6,9.7,8.6,11.8c0,2-4.8,2.8-4.8,2.8v3.5l5.3-0.3l0,0.2L418.2,367.2z
					 M355.8,345.6c0-0.6,8-12.7,8.4-12.7c0.5,0,9.9,12,9.9,12.5C374.1,345.9,355.8,346.2,355.8,345.6z"/>
				<path class="st4" d="M444,331.4h-7.5l0.3-12.7h65v5.4c0,0-5.5,5.1-12.6,11.4c-12.5,11-30.2,25.7-30.2,26
					c0,0.5,10.3,0.1,23.1,0.1c13,0,14.8-7.6,14.8-7.6l7.4,0.2v13.8l-72.2,0.5v-3.8c0,0,4.6-5,11.4-10.9c7.3-6.4,16.6-14.2,23.2-20
					c4.9-4.3,8.3-7.5,8.3-7.7c0-0.7-15.8-0.1-22.3-0.1S444,331.4,444,331.4z"/>
				<path class="st4" d="M838.6,331.1h-7.5l-1.2-14h65.6l0.4,5.8c0,0-4.2,5.7-9.9,13c-10.1,13.2-27.9,34.1-27.8,34.4
					c0,0.5,12.3,0.9,25.1,0.9c13,0,13-8.9,13-8.9l7.4,0.2l1.4,17.2l-73.8-3.8l-0.2-4.2c0,0,4.6-5.3,10.2-12
					c6.2-7.4,15.8-19.4,21.3-26.1c4.1-5,6.9-8.4,6.9-8.6c0-0.7-16.6,0-23.2,0C839.8,324.9,838.6,331.1,838.6,331.1z"/>
				<g>
					<path class="st4" d="M614.1,362.6c-1.7,0-4.5-1.1-8-2.6c-1-0.4-0.5-1.1,0-1.5c0.2-0.1,0.3-0.3,0.5-0.4c0,0,0,0,0,0l0,0
						c4.9-3.8,8-8.4,8-13.5c0-13.9-15-28.5-47.8-28.5c-32.8,0-47.8,18-47.8,27.2c0,16.7,27.7,25.4,50.5,25.4
						c7.5,0,14.9-1.1,21.5-3.1l0,0c0,0,0,0,0,0c0,0,0.1,0,0.1,0c0.3-0.1,1.3-0.3,2.1,0c0,0,0,0,0,0c5.1,1.8,10.5,3.1,15.9,3.1
						c6.2,0,10.8-1.5,10.8-1.5l0-5C619.8,362.3,619.3,362.6,614.1,362.6z M568.6,361.5c-12.2,0-26.7-3.4-26.7-19.1
						c0-15.8,17.7-19.1,24.8-19.1c7,0,25,0.9,25,19.1c0,4.1-0.9,7.4-2.4,9.9c-0.4,0.5-1,0.4-1.4,0.3l0,0c-5.5-1.8-11.3-3-17.2-3
						c-4.3,0-10.6,0.8-10.6,0.8l0.1,4.1c0,0,1.7,0.1,3.9,0.1c3.8,0,8.5,1.9,13.9,4.4c0.8,0.4-1,1.7-3.7,2.2
						C571.9,361.5,569.9,361.5,568.6,361.5z"/>
					<path class="st4" d="M619.8,362.2L619.8,362.2C619.8,362.2,619.8,362.2,619.8,362.2z"/>
				</g>
				<path class="st4" d="M638,317.4l32,0.1v3.8c0,0-14.9,6-14.9,19.7c0,9.6,4.8,21.7,28.8,21.7c7.8,0,8.2-0.2,8.2-0.6
					c0-0.4-1.8-33-1.8-36.4c0-3.4-5.8-4.3-5.8-4.3l-0.2-4h30.4l0.2,3.9c0,0-4.3-0.3-4.3,3.2c0,3.5,2.1,33.7,2.1,38.4
					c0,4.7,5.6,4.8,5.6,4.8v3.2c0,0-28.6-0.6-49.2-1.7c-20.6-1.1-36-14-36-25.1c0-10.6,8.8-16,8.8-19.8c0-2.7-3.9-2.6-3.9-2.6
					L638,317.4z"/>
			</g>
		</g>
		<g>
			<g>
				<path class="st5" d="M44,313.8h33.9v4.2c0,0-4.9,0.1-4.9,3.6c0,1.1,12.1,33.7,12.8,33.7c0.3,0,21.9-31.6,21.9-34.1
					c0-2.9-4.8-3.3-4.8-3.3l0.2-3.9l27,0.5v4c-2.8,0-4.5,0.6-9.1,8.2c-5.2,8.6-31.3,47.9-31.3,47.9l-20.6,0.7
					c-3.1-7.9-13.3-34.8-18.6-48.6c-2.1-5.5-2.9-8.9-6.8-8.9C43.7,317.9,44,313.8,44,313.8"/>
				<path class="st5" d="M148.1,318.7l0.2-4.4c0,0,61.9,1,74.2,1c0,0-0.9,11.7-0.9,11.7l-8.7,0.3c0,0-1.4-4.8-6.4-4.8
					s-30.9-0.3-30.9-0.3l-1.2,14.1c0,0,20.4,0,24.6,0c4.2,0,6.3-3.8,6.3-3.8l7.3-0.1l-1.2,14.2h-7.8c0,0,0.3-4.1-5.1-4.1
					s-24.7,0.3-24.7,0.3l-2.2,21.6c0,0,25-1,33.2-1c8.2,0,8.6-6.7,8.6-6.7l8.6-0.1l-1.2,12.8l-77.7,2.6l0.2-3.8c0,0,5.7,0.2,6.3-5.2
					c0.7-5.4,3.5-34.3,3.9-39.3C154.1,318.7,148.1,318.7,148.1,318.7z"/>
				<path class="st5" d="M739.4,317.9l-0.3-4.1c0,0,60.5,0.4,72.8,0.4c0,0,0.7,12.1,0.7,12.1l-8.7,0.3c0,0-1.4-4.8-6.4-4.8
					c-5,0-30.6-0.2-30.6-0.2l0.7,13.6c0,0,19.4,0.6,23.6,0.6c4.2,0,6.3-3.8,6.3-3.8l7.3-0.1l1.1,14.9h-7.4c0,0-0.9-4.6-6.3-4.6
					s-24.1-0.2-24.1-0.2l1.3,21.2c0,0,24.3,1.3,32.5,1.3c8.2,0,7.8-6.3,7.8-6.3l8.6-0.1l0.8,14.1l-76.5-3.6l0.2-3.8
					c0,0,5.3,0.6,5.1-5.6c-0.2-5.5-2.1-30.4-2.1-35.4C746.2,318.2,739.4,317.9,739.4,317.9z"/>
				<path class="st5" d="M242.3,315.3h31.4v3.7c0,0-4.6,0.1-4.8,3.3c-0.2,3.2-2.5,38.5-2.5,38.5s18.3-0.3,26.8-0.4
					c8.5-0.1,9-7.7,9-7.7l8.7,0l-0.7,14.4l-69.7,1.2v-3c0,0,4.5-0.7,4.9-4.2l2.6-36.3c0.1-5.6-6-5.7-6-5.7L242.3,315.3z"/>
				<path class="st5" d="M424.7,363.9l-0.3-2.8c0,0-5.2,0.2-9.6-5.7c-4.2-5.7-17.7-21.7-19.5-24.1c0,0,0,0,0,0l-10.7-15.6l-21.8,0.2
					c0,0-8.3,14.5-9.2,16.1c-0.9,1.5-13.7,19.7-17.5,26c-3.8,6.2-8.9,6.1-8.9,6.1v2.8l31-0.7l-0.1-3.2c0,0-6.3,0.1-6.3-3.4
					s6.6-11.7,6.6-11.7c1.5,0,26.1-0.3,26.1-0.3s8.6,9.7,8.6,11.8c0,2-4.8,2.8-4.8,2.8v3.5l5.3-0.3l0,0.2L424.7,363.9z M362.4,342.4
					c0-0.6,8-12.7,8.4-12.7c0.5,0,9.9,12,9.9,12.5C380.6,342.6,362.4,342.9,362.4,342.4z"/>
				<path class="st5" d="M450.5,328.2H443l0.3-12.7h65v5.4c0,0-5.5,5.1-12.6,11.4c-12.5,11-30.2,25.7-30.2,26
					c0,0.5,10.3,0.1,23.1,0.1c13,0,14.8-7.6,14.8-7.6l7.4,0.2v13.8l-72.2,0.5v-3.8c0,0,4.6-5,11.4-10.9c7.3-6.4,16.6-14.2,23.2-20
					c4.9-4.3,8.3-7.5,8.3-7.7c0-0.7-15.8-0.1-22.3-0.1C452.4,322.6,450.5,328.2,450.5,328.2z"/>
				<path class="st5" d="M845.1,327.8h-7.5l-1.2-14H902l0.4,5.8c0,0-4.2,5.7-9.9,13c-10.1,13.2-27.9,34.1-27.8,34.4
					c0,0.5,12.3,0.9,25.1,0.9c13,0,13-8.9,13-8.9l7.4,0.2l1.4,17.2l-73.8-3.8l-0.2-4.2c0,0,4.6-5.3,10.2-12
					c6.2-7.4,15.8-19.4,21.3-26.1c4.1-5,6.9-8.4,6.9-8.6c0-0.7-16.6,0-23.2,0C846.3,321.6,845.1,327.8,845.1,327.8z"/>
				<g>
					<path class="st5" d="M620.6,359.3c-1.7,0-4.5-1.1-8-2.6c-1-0.4-0.5-1.1,0-1.5c0.2-0.1,0.3-0.3,0.5-0.4c0,0,0,0,0,0l0,0
						c4.9-3.8,8-8.4,8-13.5c0-13.9-15-28.5-47.8-28.5c-32.8,0-47.8,18-47.8,27.2c0,16.7,27.7,25.4,50.5,25.4
						c7.5,0,14.9-1.1,21.5-3.1l0,0c0,0,0,0,0,0c0,0,0.1,0,0.1,0c0.3-0.1,1.3-0.3,2.1,0c0,0,0,0,0,0c5.1,1.8,10.5,3.1,15.9,3.1
						c6.2,0,10.8-1.5,10.8-1.5l0-5C626.3,359,625.8,359.3,620.6,359.3z M575.1,358.3c-12.2,0-26.7-3.4-26.7-19.1
						s17.7-19.1,24.8-19.1c7,0,25,0.9,25,19.1c0,4.1-0.9,7.4-2.4,9.9c-0.4,0.5-1,0.4-1.4,0.3l0,0c-5.5-1.8-11.3-3-17.2-3
						c-4.3,0-10.6,0.8-10.6,0.8l0.1,4.1c0,0,1.7,0.1,3.9,0.1c3.8,0,8.5,1.9,13.9,4.4c0.8,0.4-1,1.7-3.7,2.2
						C578.5,358.2,576.4,358.3,575.1,358.3z"/>
					<path class="st5" d="M626.3,358.9L626.3,358.9C626.3,358.9,626.3,358.9,626.3,358.9z"/>
				</g>
				<path class="st5" d="M644.5,314.2l32,0.1v3.8c0,0-14.9,6-14.9,19.7c0,9.6,4.8,21.7,28.8,21.7c7.8,0,8.2-0.2,8.2-0.6
					c0-0.4-1.8-33-1.8-36.4c0-3.4-5.8-4.3-5.8-4.3l-0.2-4h30.4l0.2,3.9c0,0-4.3-0.3-4.3,3.2c0,3.5,2.1,33.7,2.1,38.4
					c0,4.7,5.6,4.8,5.6,4.8v3.2c0,0-28.6-0.6-49.2-1.7s-36-14-36-25.1c0-10.6,8.8-16,8.8-19.8c0-2.7-3.9-2.6-3.9-2.6L644.5,314.2z"
					/>
			</g>
		</g>
		<g>
			<g>
				<path class="st3" d="M386.3,270.7c-0.2,0.3-0.2,0.7,0.1,0.9c0.9,0.7,2.6,1.9,3.1,1.8c0.7-0.1,8.6-5.7,8.6-6.9
					c0-1.2-5.4-7.1-21-7.1s-26.5,9.7-26.5,18.8s11.6,19.4,27.1,19.4s16.8-0.3,17.4-1c0.6-0.7,0.7-4.9,0.8-6.6c0-0.4-0.3-0.7-0.6-0.7
					l-4.9,0c-0.2,0-0.3,0.1-0.4,0.2c-0.7,0.7-3.9,3.1-9.1,3.1c-6.1,0-16.3-4.9-16.3-14.9s8.8-13.3,14-13.3
					C383.5,264.6,387.9,268,386.3,270.7z"/>
				<path class="st3" d="M458.4,294.4c0-0.1-0.1-0.1-0.1-0.2c-0.4-0.2-2-1.1-3-2.7c-1.1-1.7-16.8-27.5-18.9-30.9
					c-0.1-0.2-0.4-0.4-0.7-0.4h-12.4c-0.2,0-0.5,0.1-0.6,0.3c-1.8,3.3-16,29.2-17,31.6c-0.9,2-3.1,2.3-3.9,2.3
					c-0.2,0-0.3,0.1-0.3,0.3v1.9c0,0.2,0.2,0.4,0.4,0.4h18.8c0.2,0,0.3-0.1,0.3-0.3l0.1-1.8c0-0.2-0.1-0.3-0.3-0.3
					c-1-0.2-4.1-0.8-4.1-2.3c0-1.3,4-9.3,4-9.3l14.5-0.1c0,0,5.3,7.9,5.2,9.5c-0.1,1.5-1.8,2-2.4,2.1c-0.1,0-0.2,0.1-0.2,0.2
					c0,0.4-0.1,1.5-0.1,2.2c0,0.1,0.1,0.2,0.2,0.2h20.1C458.7,297,458.5,294.9,458.4,294.4z M432.9,278.8c-1.4,0-8.4,0-9.6,0
					c-0.1,0-0.1-0.1-0.1-0.2c0.6-1.1,3.8-7.3,4.5-8.5c0.1-0.1,0.2-0.1,0.3,0c0.9,1.2,4.4,7.3,5.1,8.5
					C433.1,278.7,433.1,278.8,432.9,278.8z"/>
				<path class="st3" d="M464,260.2h18.1c0.1,0,0.2,0.1,0.2,0.2v1.8c0,0.2-0.2,0.4-0.4,0.4c-0.7,0.1-2,0.4-2,1.7
					c0,1.7-0.1,27.3-0.1,27.3s11.2-0.2,15.6-0.2c3.9,0,4.7-3.9,4.7-4.8c0-0.1,0.1-0.2,0.2-0.2h5c0.1,0,0.2,0.1,0.2,0.2v8.1
					c0,1.2-1,2.1-2.1,2.1h-38.7c-0.2,0-0.3-0.1-0.3-0.3v-1.9c0-0.1,0.1-0.3,0.2-0.3c0.6-0.2,2.3-0.8,2.3-2.6
					c0-2.2,0.4-23.3,0.4-25.9c0-2.3-2.4-3-3.3-3.2c-0.2,0-0.3-0.2-0.3-0.4v-1.8C463.8,260.3,463.9,260.2,464,260.2z"/>
				<path class="st3" d="M510.9,260.2h18.1c0.1,0,0.2,0.1,0.2,0.2v1.8c0,0.2-0.2,0.4-0.4,0.4c-0.7,0.1-2,0.4-2,1.7
					c0,1.7-0.1,27.3-0.1,27.3s11.2-0.2,15.6-0.2c3.9,0,4.7-3.9,4.7-4.8c0-0.1,0.1-0.2,0.2-0.2h5c0.1,0,0.2,0.1,0.2,0.2v8.1
					c0,1.2-1,2.1-2.1,2.1h-38.7c-0.2,0-0.3-0.1-0.3-0.3v-1.9c0-0.1,0.1-0.3,0.2-0.3c0.6-0.2,2.3-0.8,2.3-2.6
					c0-2.2,0.4-23.3,0.4-25.9c0-2.3-2.4-3-3.3-3.2c-0.2,0-0.3-0.2-0.3-0.4v-1.8C510.7,260.3,510.8,260.2,510.9,260.2z"/>
				<path class="st3" d="M558.1,260.2c-0.1,0-0.2,0.1-0.2,0.2v1.8c0,0.2,0.1,0.3,0.3,0.4c0.9,0.2,3.5,1,3.4,3.2
					c0,2.6,0.1,23.2,0.1,25.4c0,1.8-2.1,2.6-2.7,2.8c-0.1,0-0.2,0.2-0.2,0.3l-0.1,2.2c0,0.2,0.1,0.3,0.3,0.3h43.3
					c1.2,0,2.1-1,2.1-2.1l-0.1-7c0-0.1-0.1-0.2-0.2-0.2h-5c-0.1,0-0.2,0.1-0.2,0.2c0,0.9-1.6,4-4.5,4c-4.5,0-19.5,0.2-19.5,0.2
					s0-6.8-0.1-13.7c0,0,13.2-0.2,15-0.2c1.8,0,2.6,2.7,2.6,2.7h4.3c0.3,0,0.5-0.2,0.5-0.5L597,271c0-0.3-0.2-0.5-0.5-0.5h-4.4
					c0,0-0.4,2.3-2.8,2.3s-14.6,0.2-14.6,0.2l-0.2-8.5c0,0,15-0.2,17.9-0.2c2.9,0,4.1,3.1,4.1,3.1l4.5-0.1c0.5,0,0.8-0.4,0.8-0.9
					l-0.2-6.2c0-0.4-0.4-0.8-0.8-0.8L558.1,260.2z"/>
			</g>
		</g>
	</g>
	<g>
		<path d="M945.3,160.9c-66.2-4-227.1-13-289.8-12c-0.4,0-0.6,0.3-0.6,0.7l0.3,11.8c0,0.4-0.3,0.7-0.6,0.7l-351.7,1.8
			c-0.4,0-0.7-0.3-0.7-0.7l0.1-11.9c0-0.4-0.3-0.6-0.6-0.7c-53.8-0.4-233.7,5.9-300.8,11.4c-0.4,0-0.7-0.3-0.7-0.6V54.5
			c0-0.4,0.3-0.6,0.7-0.6l304.2,1.4c0.3,0,0.6-0.3,0.6-0.6l1.4-54c0-0.3,0.3-0.6,0.6-0.6h341.2c0.4,0,0.6,0.3,0.6,0.6l1.2,52.6
			c0,0.4,0.3,0.6,0.6,0.6h293.2c0.4,0,0.6,0.3,0.6,0.6l0.8,105.8C946,160.6,945.7,160.9,945.3,160.9z"/>
		<rect x="318.2" y="10.2" class="st6" width="321.3" height="141"/>
		<path class="st7" d="M935.7,151.2c0,0-160-12.7-460.4-12.7C268.1,138.5,13,151.2,13,151.2V62.5c0,0,346,1.7,461.3,1.7
			s461.3-1.7,461.3-1.7V151.2z"/>
		<g class="st8">
			<path d="M37.5,76.9h33.9v4.2c0,0-4.9,0.1-4.9,3.6c0,1.1,12.1,33.7,12.8,33.7c0.3,0,21.9-31.6,21.9-34.1c0-2.9-4.8-3.3-4.8-3.3
				l0.2-3.9l27,0.5v4c-2.8,0-4.5,0.6-9.1,8.2c-5.2,8.6-31.3,47.9-31.3,47.9l-20.6,0.7c-3.1-7.9-13.3-34.8-18.6-48.6
				c-2.1-5.5-2.9-8.9-6.8-8.9C37.2,81,37.5,76.9,37.5,76.9"/>
			<path d="M141.5,81.8l0.2-4.4c0,0,61.9,1,74.2,1c0,0-0.9,11.7-0.9,11.7l-8.7,0.3c0,0-1.4-4.8-6.4-4.8s-30.9-0.3-30.9-0.3
				l-1.2,14.1c0,0,20.4,0,24.6,0c4.2,0,6.3-3.8,6.3-3.8l7.3-0.1l-1.2,14.2h-7.8c0,0,0.3-4.1-5.1-4.1s-24.7,0.3-24.7,0.3l-2.2,21.6
				c0,0,25-1,33.2-1c8.2,0,8.6-6.7,8.6-6.7l8.6-0.1l-1.2,12.8l-77.7,2.6l0.2-3.8c0,0,5.7,0.2,6.3-5.2s3.5-34.3,3.9-39.3
				C147.6,81.7,141.5,81.8,141.5,81.8z"/>
			<path d="M732.9,80.9l-0.3-4.1c0,0,60.5,0.4,72.8,0.4c0,0,0.7,12.1,0.7,12.1l-8.7,0.3c0,0-1.4-4.8-6.4-4.8s-30.6-0.2-30.6-0.2
				l0.7,13.6c0,0,19.4,0.6,23.6,0.6c4.2,0,6.3-3.8,6.3-3.8l7.3-0.1l1.1,14.9h-7.4c0,0-0.9-4.6-6.3-4.6c-5.4,0-24.1-0.2-24.1-0.2
				l1.3,21.2c0,0,24.3,1.3,32.5,1.3c8.2,0,7.8-6.3,7.8-6.3l8.6-0.1l0.8,14.1l-76.5-3.6l0.2-3.8c0,0,5.3,0.6,5.1-5.6
				c-0.2-5.5-2.1-30.4-2.1-35.4C739.7,81.2,732.9,80.9,732.9,80.9z"/>
			<path d="M235.8,78.3h31.4V82c0,0-4.6,0.1-4.8,3.3c-0.2,3.2-2.5,38.5-2.5,38.5s18.3-0.3,26.8-0.4c8.5-0.1,9-7.7,9-7.7l8.7,0
				l-0.7,14.4l-69.7,1.2v-3c0,0,4.5-0.7,4.9-4.2l2.6-36.3c0.1-5.6-6-5.7-6-5.7L235.8,78.3z"/>
			<path d="M418.2,127l-0.3-2.8c0,0-5.2,0.2-9.6-5.7c-4.2-5.7-17.7-21.7-19.5-24.1c0,0,0,0,0,0l-10.7-15.6l-21.8,0.2
				c0,0-8.3,14.5-9.2,16.1c-0.9,1.5-13.7,19.7-17.5,26c-3.8,6.2-8.9,6.1-8.9,6.1v2.8l31-0.7l-0.1-3.2c0,0-6.3,0.1-6.3-3.4
				c0-3.5,6.6-11.7,6.6-11.7c1.5,0,26.1-0.3,26.1-0.3s8.6,9.7,8.6,11.8s-4.8,2.8-4.8,2.8v3.5l5.3-0.3l0,0.2L418.2,127z M355.8,105.4
				c0-0.6,8-12.7,8.4-12.7c0.5,0,9.9,12,9.9,12.5C374.1,105.7,355.8,106,355.8,105.4z"/>
			<path d="M444,91.2h-7.5l0.3-12.7h65V84c0,0-5.5,5.1-12.6,11.4c-12.5,11-30.2,25.7-30.2,26c0,0.5,10.3,0.1,23.1,0.1
				c13,0,14.8-7.6,14.8-7.6l7.4,0.2v13.8l-72.2,0.5v-3.8c0,0,4.6-5,11.4-10.9c7.3-6.4,16.6-14.2,23.2-20c4.9-4.3,8.3-7.5,8.3-7.7
				c0-0.7-15.8-0.1-22.3-0.1S444,91.2,444,91.2z"/>
			<path d="M838.6,90.9h-7.5l-1.2-14h65.6l0.4,5.8c0,0-4.2,5.7-9.9,13c-10.1,13.2-27.9,34.1-27.8,34.4c0,0.5,12.3,0.9,25.1,0.9
				c13,0,13-8.9,13-8.9l7.4,0.2l1.4,17.2l-73.8-3.8l-0.2-4.2c0,0,4.6-5.3,10.2-12c6.2-7.4,15.8-19.4,21.3-26.1
				c4.1-5,6.9-8.4,6.9-8.6c0-0.7-16.6,0-23.2,0C839.8,84.7,838.6,90.9,838.6,90.9z"/>
			<g>
				<path d="M614.1,122.4c-1.7,0-4.5-1.1-8-2.6c-1-0.4-0.5-1.1,0-1.5c0.2-0.1,0.3-0.3,0.5-0.4c0,0,0,0,0,0l0,0c4.9-3.8,8-8.4,8-13.5
					c0-13.9-15-28.5-47.8-28.5c-32.8,0-47.8,18-47.8,27.2c0,16.7,27.7,25.4,50.5,25.4c7.5,0,14.9-1.1,21.5-3.1l0,0c0,0,0,0,0,0
					c0,0,0.1,0,0.1,0c0.3-0.1,1.3-0.3,2.1,0c0,0,0,0,0,0c5.1,1.8,10.5,3.1,15.9,3.1c6.2,0,10.8-1.5,10.8-1.5l0-5
					C619.8,122.1,619.3,122.4,614.1,122.4z M568.6,121.3c-12.2,0-26.7-3.4-26.7-19.1c0-15.8,17.7-19.1,24.8-19.1c7,0,25,0.9,25,19.1
					c0,4.1-0.9,7.4-2.4,9.9c-0.4,0.5-1,0.4-1.4,0.3l0,0c-5.5-1.8-11.3-3-17.2-3c-4.3,0-10.6,0.8-10.6,0.8l0.1,4.1
					c0,0,1.7,0.1,3.9,0.1c3.8,0,8.5,1.9,13.9,4.4c0.8,0.4-1,1.7-3.7,2.2C571.9,121.3,569.9,121.3,568.6,121.3z"/>
				<path d="M619.8,122L619.8,122C619.8,122,619.8,122,619.8,122z"/>
			</g>
			<path d="M638,77.2l32,0.1v3.8c0,0-14.9,6-14.9,19.7c0,9.6,4.8,21.7,28.8,21.7c7.8,0,8.2-0.2,8.2-0.6c0-0.4-1.8-33-1.8-36.4
				c0-3.4-5.8-4.3-5.8-4.3l-0.2-4h30.4l0.2,3.9c0,0-4.3-0.3-4.3,3.2s2.1,33.7,2.1,38.4s5.6,4.8,5.6,4.8v3.2c0,0-28.6-0.6-49.2-1.7
				c-20.6-1.1-36-14-36-25.1c0-10.6,8.8-16,8.8-19.8c0-2.7-3.9-2.6-3.9-2.6L638,77.2z"/>
		</g>
		<g>
			<path d="M44,73.6h33.9v4.2c0,0-4.9,0.1-4.9,3.6c0,1.1,12.1,33.7,12.8,33.7c0.3,0,21.9-31.6,21.9-34.1c0-2.9-4.8-3.3-4.8-3.3
				l0.2-3.9l27,0.5v4c-2.8,0-4.5,0.6-9.1,8.2c-5.2,8.6-31.3,47.9-31.3,47.9l-20.6,0.7c-3.1-7.9-13.3-34.8-18.6-48.6
				c-2.1-5.5-2.9-8.9-6.8-8.9C43.7,77.7,44,73.6,44,73.6"/>
			<path d="M148.1,78.5l0.2-4.4c0,0,61.9,1,74.2,1c0,0-0.9,11.7-0.9,11.7l-8.7,0.3c0,0-1.4-4.8-6.4-4.8s-30.9-0.3-30.9-0.3L174.4,96
				c0,0,20.4,0,24.6,0c4.2,0,6.3-3.8,6.3-3.8l7.3-0.1l-1.2,14.2h-7.8c0,0,0.3-4.1-5.1-4.1s-24.7,0.3-24.7,0.3l-2.2,21.6
				c0,0,25-1,33.2-1c8.2,0,8.6-6.7,8.6-6.7l8.6-0.1l-1.2,12.8l-77.7,2.6l0.2-3.8c0,0,5.7,0.2,6.3-5.2c0.7-5.4,3.5-34.3,3.9-39.3
				C154.1,78.5,148.1,78.5,148.1,78.5z"/>
			<path d="M739.4,77.7l-0.3-4.1c0,0,60.5,0.4,72.8,0.4c0,0,0.7,12.1,0.7,12.1l-8.7,0.3c0,0-1.4-4.8-6.4-4.8c-5,0-30.6-0.2-30.6-0.2
				l0.7,13.6c0,0,19.4,0.6,23.6,0.6c4.2,0,6.3-3.8,6.3-3.8l7.3-0.1l1.1,14.9h-7.4c0,0-0.9-4.6-6.3-4.6s-24.1-0.2-24.1-0.2l1.3,21.2
				c0,0,24.3,1.3,32.5,1.3c8.2,0,7.8-6.3,7.8-6.3l8.6-0.1l0.8,14.1l-76.5-3.6l0.2-3.8c0,0,5.3,0.6,5.1-5.6
				c-0.2-5.5-2.1-30.4-2.1-35.4C746.2,78,739.4,77.7,739.4,77.7z"/>
			<path d="M242.3,75.1h31.4v3.7c0,0-4.6,0.1-4.8,3.3c-0.2,3.2-2.5,38.5-2.5,38.5s18.3-0.3,26.8-0.4c8.5-0.1,9-7.7,9-7.7l8.7,0
				l-0.7,14.4l-69.7,1.2v-3c0,0,4.5-0.7,4.9-4.2l2.6-36.3c0.1-5.6-6-5.7-6-5.7L242.3,75.1z"/>
			<path d="M424.7,123.7l-0.3-2.8c0,0-5.2,0.2-9.6-5.7c-4.2-5.7-17.7-21.7-19.5-24.1c0,0,0,0,0,0l-10.7-15.6l-21.8,0.2
				c0,0-8.3,14.5-9.2,16.1c-0.9,1.5-13.7,19.7-17.5,26c-3.8,6.2-8.9,6.1-8.9,6.1v2.8l31-0.7l-0.1-3.2c0,0-6.3,0.1-6.3-3.4
				c0-3.5,6.6-11.7,6.6-11.7c1.5,0,26.1-0.3,26.1-0.3s8.6,9.7,8.6,11.8s-4.8,2.8-4.8,2.8v3.5l5.3-0.3l0,0.2L424.7,123.7z
				 M362.4,102.2c0-0.6,8-12.7,8.4-12.7c0.5,0,9.9,12,9.9,12.5C380.6,102.4,362.4,102.7,362.4,102.2z"/>
			<path d="M450.5,88H443l0.3-12.7h65v5.4c0,0-5.5,5.1-12.6,11.4c-12.5,11-30.2,25.7-30.2,26c0,0.5,10.3,0.1,23.1,0.1
				c13,0,14.8-7.6,14.8-7.6l7.4,0.2v13.8l-72.2,0.5v-3.8c0,0,4.6-5,11.4-10.9c7.3-6.4,16.6-14.2,23.2-20c4.9-4.3,8.3-7.5,8.3-7.7
				c0-0.7-15.8-0.1-22.3-0.1C452.4,82.4,450.5,88,450.5,88z"/>
			<path d="M845.1,87.6h-7.5l-1.2-14H902l0.4,5.8c0,0-4.2,5.7-9.9,13c-10.1,13.2-27.9,34.1-27.8,34.4c0,0.5,12.3,0.9,25.1,0.9
				c13,0,13-8.9,13-8.9l7.4,0.2l1.4,17.2l-73.8-3.8l-0.2-4.2c0,0,4.6-5.3,10.2-12c6.2-7.4,15.8-19.4,21.3-26.1
				c4.1-5,6.9-8.4,6.9-8.6c0-0.7-16.6,0-23.2,0C846.3,81.4,845.1,87.6,845.1,87.6z"/>
			<g>
				<path d="M620.6,119.1c-1.7,0-4.5-1.1-8-2.6c-1-0.4-0.5-1.1,0-1.5c0.2-0.1,0.3-0.3,0.5-0.4c0,0,0,0,0,0l0,0c4.9-3.8,8-8.4,8-13.5
					c0-13.9-15-28.5-47.8-28.5c-32.8,0-47.8,18-47.8,27.2c0,16.7,27.7,25.4,50.5,25.4c7.5,0,14.9-1.1,21.5-3.1l0,0c0,0,0,0,0,0
					c0,0,0.1,0,0.1,0c0.3-0.1,1.3-0.3,2.1,0c0,0,0,0,0,0c5.1,1.8,10.5,3.1,15.9,3.1c6.2,0,10.8-1.5,10.8-1.5l0-5
					C626.3,118.8,625.8,119.1,620.6,119.1z M575.1,118.1c-12.2,0-26.7-3.4-26.7-19.1s17.7-19.1,24.8-19.1c7,0,25,0.9,25,19.1
					c0,4.1-0.9,7.4-2.4,9.9c-0.4,0.5-1,0.4-1.4,0.3l0,0c-5.5-1.8-11.3-3-17.2-3c-4.3,0-10.6,0.8-10.6,0.8l0.1,4.1
					c0,0,1.7,0.1,3.9,0.1c3.8,0,8.5,1.9,13.9,4.4c0.8,0.4-1,1.7-3.7,2.2C578.5,118,576.4,118.1,575.1,118.1z"/>
				<path d="M626.3,118.7L626.3,118.7C626.3,118.7,626.3,118.7,626.3,118.7z"/>
			</g>
			<path d="M644.5,74l32,0.1v3.8c0,0-14.9,6-14.9,19.7c0,9.6,4.8,21.7,28.8,21.7c7.8,0,8.2-0.2,8.2-0.6c0-0.4-1.8-33-1.8-36.4
				c0-3.4-5.8-4.3-5.8-4.3l-0.2-4h30.4l0.2,3.9c0,0-4.3-0.3-4.3,3.2s2.1,33.7,2.1,38.4s5.6,4.8,5.6,4.8v3.2c0,0-28.6-0.6-49.2-1.7
				s-36-14-36-25.1c0-10.6,8.8-16,8.8-19.8c0-2.7-3.9-2.6-3.9-2.6L644.5,74z"/>
		</g>
		<path d="M386.3,30.5c-0.2,0.3-0.2,0.7,0.1,0.9c0.9,0.7,2.6,1.9,3.1,1.8c0.7-0.1,8.6-5.7,8.6-6.9s-5.4-7.1-21-7.1
			s-26.5,9.7-26.5,18.8s11.6,19.4,27.1,19.4s16.8-0.3,17.4-1c0.6-0.7,0.7-4.9,0.8-6.6c0-0.4-0.3-0.7-0.6-0.7l-4.9,0
			c-0.2,0-0.3,0.1-0.4,0.2c-0.7,0.7-3.9,3.1-9.1,3.1c-6.1,0-16.3-4.9-16.3-14.9s8.8-13.3,14-13.3C383.5,24.4,387.9,27.8,386.3,30.5z
			"/>
		<path d="M458.4,54.2c0-0.1-0.1-0.1-0.1-0.2c-0.4-0.2-2-1.1-3-2.7c-1.1-1.7-16.8-27.5-18.9-30.9c-0.1-0.2-0.4-0.4-0.7-0.4h-12.4
			c-0.2,0-0.5,0.1-0.6,0.3c-1.8,3.3-16,29.2-17,31.6c-0.9,2-3.1,2.3-3.9,2.3c-0.2,0-0.3,0.1-0.3,0.3v1.9c0,0.2,0.2,0.4,0.4,0.4h18.8
			c0.2,0,0.3-0.1,0.3-0.3l0.1-1.8c0-0.2-0.1-0.3-0.3-0.3c-1-0.2-4.1-0.8-4.1-2.3c0-1.3,4-9.3,4-9.3l14.5-0.1c0,0,5.3,7.9,5.2,9.5
			c-0.1,1.5-1.8,2-2.4,2.1c-0.1,0-0.2,0.1-0.2,0.2c0,0.4-0.1,1.5-0.1,2.2c0,0.1,0.1,0.2,0.2,0.2h20.1
			C458.7,56.8,458.5,54.7,458.4,54.2z M432.9,38.6c-1.4,0-8.4,0-9.6,0c-0.1,0-0.1-0.1-0.1-0.2c0.6-1.1,3.8-7.3,4.5-8.5
			c0.1-0.1,0.2-0.1,0.3,0c0.9,1.2,4.4,7.3,5.1,8.5C433.1,38.5,433.1,38.6,432.9,38.6z"/>
		<path d="M464,20h18.1c0.1,0,0.2,0.1,0.2,0.2v1.8c0,0.2-0.2,0.4-0.4,0.4c-0.7,0.1-2,0.4-2,1.7c0,1.7-0.1,27.3-0.1,27.3
			s11.2-0.2,15.6-0.2c3.9,0,4.7-3.9,4.7-4.8c0-0.1,0.1-0.2,0.2-0.2h5c0.1,0,0.2,0.1,0.2,0.2v8.1c0,1.2-1,2.1-2.1,2.1h-38.7
			c-0.2,0-0.3-0.1-0.3-0.3v-1.9c0-0.1,0.1-0.3,0.2-0.3c0.6-0.2,2.3-0.8,2.3-2.6c0-2.2,0.4-23.3,0.4-25.9c0-2.3-2.4-3-3.3-3.2
			c-0.2,0-0.3-0.2-0.3-0.4v-1.8C463.8,20.1,463.9,20,464,20z"/>
		<path d="M510.9,20h18.1c0.1,0,0.2,0.1,0.2,0.2v1.8c0,0.2-0.2,0.4-0.4,0.4c-0.7,0.1-2,0.4-2,1.7c0,1.7-0.1,27.3-0.1,27.3
			s11.2-0.2,15.6-0.2c3.9,0,4.7-3.9,4.7-4.8c0-0.1,0.1-0.2,0.2-0.2h5c0.1,0,0.2,0.1,0.2,0.2v8.1c0,1.2-1,2.1-2.1,2.1h-38.7
			c-0.2,0-0.3-0.1-0.3-0.3v-1.9c0-0.1,0.1-0.3,0.2-0.3c0.6-0.2,2.3-0.8,2.3-2.6c0-2.2,0.4-23.3,0.4-25.9c0-2.3-2.4-3-3.3-3.2
			c-0.2,0-0.3-0.2-0.3-0.4v-1.8C510.7,20.1,510.8,20,510.9,20z"/>
		<path d="M558.1,20c-0.1,0-0.2,0.1-0.2,0.2V22c0,0.2,0.1,0.3,0.3,0.4c0.9,0.2,3.5,1,3.4,3.2c0,2.6,0.1,23.2,0.1,25.4
			c0,1.8-2.1,2.6-2.7,2.8c-0.1,0-0.2,0.2-0.2,0.3l-0.1,2.2c0,0.2,0.1,0.3,0.3,0.3h43.3c1.2,0,2.1-1,2.1-2.1l-0.1-7
			c0-0.1-0.1-0.2-0.2-0.2l-5,0c-0.1,0-0.2,0.1-0.2,0.2c0,0.9-1.6,4-4.5,4c-4.5,0-19.5,0.2-19.5,0.2s0-6.8-0.1-13.7
			c0,0,13.2-0.2,15-0.2c1.8,0,2.6,2.7,2.6,2.7h4.3c0.3,0,0.5-0.2,0.5-0.5l-0.1-9.2c0-0.3-0.2-0.5-0.5-0.5h-4.4c0,0-0.4,2.3-2.8,2.3
			s-14.6,0.2-14.6,0.2l-0.2-8.5c0,0,15-0.2,17.9-0.2c2.9,0,4.1,3.1,4.1,3.1l4.5-0.1c0.5,0,0.8-0.4,0.8-0.9l-0.2-6.2
			c0-0.4-0.4-0.8-0.8-0.8L558.1,20z"/>
	</g>
</g>
</svg>
