<?xml version="1.0" encoding="utf-8"?>
<!-- Generator: Adobe Illustrator 24.3.0, SVG Export Plug-In . SVG Version: 6.00 Build 0)  -->
<svg version="1.1" xmlns="http://www.w3.org/2000/svg" xmlns:xlink="http://www.w3.org/1999/xlink" x="0px" y="0px"
	 viewBox="0 0 946 191" style="enable-background:new 0 0 946 191;" xml:space="preserve">
<style type="text/css">
	.st0{fill:#E8DCAA;}
	.st1{fill:#CCCCCC;}
	.st2{fill:#966A5F;}
	.st3{fill:#FFFFFF;}
	.st4{opacity:0.23;fill:#FFFFFF;}
	.st5{fill:#666666;}
	.st6{opacity:0.23;fill:#666666;}
</style>
<g id="Capa_1">
</g>
<g id="Capa_3">
	<path class="st0" d="M439.7,0v153.6c0,9.3-7.5,16.8-16.8,16.8H368c-9.2,0-16.6,7.5-16.6,16.6v4H142.5v-45.8H138
		c-0.2,9.3-7.7,16.7-17.1,16.7H0V9.3h138v8h152.5c9.2,0,16.6-7.5,16.6-16.6V0H439.7z"/>
	<path class="st1" d="M946,0v153.6c0,9.3-7.5,16.8-16.8,16.8h-54.8c-9.2,0-16.6,7.5-16.6,16.6v4H648.8v-45.8h-4.4
		c-0.2,9.3-7.7,16.7-17.1,16.7h-121V9.3h138v8h152.5c9.2,0,16.6-7.5,16.6-16.6V0H946z"/>
</g>
<g id="Capa_2">
	<path class="st2" d="M155.4,88.2v17.4h-34.3c-0.2,0-0.4,0-0.6,0c-9.1-0.3-16.4-7.7-16.7-16.8c0-0.2,0-0.4,0-0.6V72.1
		c0-0.2,0-0.5,0-0.7c0.4-9,7.6-16.3,16.7-16.7c0.2,0,0.5,0,0.7,0h16.7c9.6,0,17.4,7.8,17.4,17.4c0,7.3-4.5,13.5-10.9,16.1H155.4z"/>
	<path class="st2" d="M397.8,88.2v17.4h-34.3c-0.2,0-0.4,0-0.6,0c-9.1-0.3-16.4-7.7-16.7-16.8c0-0.2,0-0.4,0-0.6V72.1
		c0-0.2,0-0.5,0-0.7c0.4-9,7.6-16.3,16.7-16.7c0.2,0,0.5,0,0.7,0h16.7c9.6,0,17.4,7.8,17.4,17.4c0,7.3-4.5,13.5-10.9,16.1H397.8z"/>
	<path class="st2" d="M286.5,80.5c0,13.8-11.7,25.3-25.5,25.3c-13.8,0-25.5-11.5-25.5-25.3s12-25.1,25.8-25.1
		C275,55.3,286.5,66.7,286.5,80.5z"/>
	<path class="st3" d="M121.1,105.6h-0.6v0C120.7,105.6,120.9,105.6,121.1,105.6z"/>
	<path class="st2" d="M63,54c-9.6,0-17.4,7.8-17.4,17.4v33.7h41.5V71.4h11.6V54H63z"/>
	<path class="st2" d="M231.2,71.4c-1-9.3-8-15.9-18-15.9c-8.9,0-16.1,7.3-17.8,15.1c-1.3-8.7-8.9-15.4-17.9-15.4
		c-9.3,0-17,7-18,16.1h-0.1v33.7h72V71.4H231.2z"/>
	<path class="st2" d="M324.5,21.9v34.9c-2.6-0.9-5.3-1.4-8.2-1.4c-13.6,0-25.4,11.2-25.4,24.8c0,13.6,11.6,25,25.2,25
		c4.6,0,8.9-1.3,12.7-3.5c3.2,2.3,7.5,3.5,12.9,3.5V93.9V68.8V21.9H324.5z"/>
	<path class="st3" d="M103.7,88.8L103.7,88.8l0-0.6C103.7,88.4,103.7,88.6,103.7,88.8z"/>
	<path class="st4" d="M103.7,71.4c0,0.2,0,0.5,0,0.7L103.7,71.4L103.7,71.4z"/>
	<path class="st4" d="M121.1,54.7c-0.2,0-0.5,0-0.7,0v0H121.1z"/>
	<polygon class="st3" points="229.7,122.8 229.7,137.8 232.9,137.8 232.9,131.2 236.8,131.2 236.8,128.6 232.9,128.6 232.9,125 
		238.1,125 238.1,122.8 	"/>
	<polygon class="st3" points="306.1,124.4 306.1,122.1 297.2,122.1 297.2,137.2 306.1,137.2 306.1,134.9 300.4,134.9 300.4,131.4 
		300.4,130.5 304.8,130.5 304.8,127.9 300.4,127.9 300.4,124.4 	"/>
	<path class="st3" d="M250.1,137.9c3.4,0,5.6-1.3,5.6-3.8v-11.3h-3.2v10.8c0,0.9-0.8,1.8-2.4,1.8s-2.4-0.8-2.4-1.8v-10.8h-3.2v11.3
		C244.5,136.6,246.7,137.9,250.1,137.9z"/>
	<path class="st3" d="M262.8,126.4c0,6.2,7.4,3.1,7.4,6.9c0,0,0.3,1.9-3.2,1.9c-2.3,0-3-0.7-3.6-1.2l-1.4,2.4c0,0,1.8,1.5,5,1.5
		c3.3,0,6.7-1.1,6.7-5.4c0-5.5-7.6-4-7.5-6.5c0-2.1,2.3-1.7,2.6-1.7c1.2,0,3.2,1,3.2,1l1.6-2.3c0,0-2.3-1.3-5.2-1.3
		C265.5,121.8,262.8,123.2,262.8,126.4z"/>
	<path class="st3" d="M330.8,126.4c0,6.2,7.4,3.1,7.4,6.9c0,0,0.3,1.9-3.2,1.9c-2.3,0-3-0.7-3.6-1.2l-1.4,2.4c0,0,1.8,1.5,5,1.5
		c3.3,0,6.7-1.1,6.7-5.4c0-5.5-7.6-4-7.5-6.5c0-2.1,2.3-1.7,2.6-1.7c1.2,0,3.2,1,3.2,1l1.6-2.3c0,0-2.3-1.3-5.2-1.3
		C333.5,121.8,330.8,123.2,330.8,126.4z"/>
	<polygon class="st3" points="290.9,122.1 280,122.1 280,124.4 283.5,124.4 283.5,137.2 283.5,137.2 286.7,137.2 286.7,137.2 
		286.7,124.4 290.9,124.4 	"/>
	<path class="st3" d="M320.5,130.6c0,0,3.2-0.5,3.2-4.5c0-4.9-5.2-4.4-7.3-4.4h-2.8l0,15.4h2.9l0-6.3c1.3,0,3.7,4.7,4.4,6.3h3.6
		L320.5,130.6z M316.4,128.6l0-4.1c1.4,0,4.1-0.1,4.1,1.8C320.5,128.6,317.6,128.6,316.4,128.6z"/>
	<path class="st5" d="M661.8,88.2v17.4h-34.3c-0.2,0-0.4,0-0.6,0c-9.1-0.3-16.4-7.7-16.7-16.8c0-0.2,0-0.4,0-0.6V72.1
		c0-0.2,0-0.5,0-0.7c0.4-9,7.6-16.3,16.7-16.7c0.2,0,0.5,0,0.7,0h16.7c9.6,0,17.4,7.8,17.4,17.4c0,7.3-4.5,13.5-10.9,16.1H661.8z"/>
	<path class="st5" d="M904.2,88.2v17.4h-34.3c-0.2,0-0.4,0-0.6,0c-9.1-0.3-16.4-7.7-16.7-16.8c0-0.2,0-0.4,0-0.6V72.1
		c0-0.2,0-0.5,0-0.7c0.4-9,7.6-16.3,16.7-16.7c0.2,0,0.5,0,0.7,0h16.7c9.6,0,17.4,7.8,17.4,17.4c0,7.3-4.5,13.5-10.9,16.1H904.2z"/>
	<path class="st5" d="M792.8,80.5c0,13.8-11.7,25.3-25.5,25.3s-25.5-11.5-25.5-25.3s12-25.1,25.8-25.1S792.8,66.7,792.8,80.5z"/>
	<path class="st3" d="M627.4,105.6h-0.6v0C627,105.6,627.2,105.6,627.4,105.6z"/>
	<path class="st5" d="M569.4,54c-9.6,0-17.4,7.8-17.4,17.4v33.7h41.5V71.4h11.6V54H569.4z"/>
	<path class="st5" d="M737.5,71.4c-1-9.3-8-15.9-18-15.9c-8.9,0-16.1,7.3-17.8,15.1c-1.3-8.7-8.9-15.4-17.9-15.4
		c-9.3,0-17,7-18,16.1h-0.1v33.7h72V71.4H737.5z"/>
	<path class="st5" d="M830.9,21.9v34.9c-2.6-0.9-5.3-1.4-8.2-1.4c-13.6,0-25.4,11.2-25.4,24.8c0,13.6,11.6,25,25.2,25
		c4.6,0,8.9-1.3,12.7-3.5c3.2,2.3,7.5,3.5,12.9,3.5V93.9V68.8V21.9H830.9z"/>
	<path class="st5" d="M610.1,88.8L610.1,88.8l0-0.6C610.1,88.4,610.1,88.6,610.1,88.8z"/>
	<path class="st6" d="M610.1,71.4c0,0.2,0,0.5,0,0.7L610.1,71.4L610.1,71.4z"/>
	<path class="st6" d="M627.4,54.7c-0.2,0-0.5,0-0.7,0v0H627.4z"/>
	<polygon class="st3" points="736.1,122.8 736.1,137.8 739.3,137.8 739.3,131.2 743.1,131.2 743.1,128.6 739.3,128.6 739.3,125 
		744.5,125 744.5,122.8 	"/>
	<polygon class="st3" points="812.4,124.4 812.4,122.1 803.5,122.1 803.5,137.2 812.4,137.2 812.4,134.9 806.7,134.9 806.7,131.4 
		806.7,130.5 811.1,130.5 811.1,127.9 806.7,127.9 806.7,124.4 	"/>
	<path class="st3" d="M756.5,137.9c3.4,0,5.6-1.3,5.6-3.8v-11.3h-3.2v10.8c0,0.9-0.8,1.8-2.4,1.8c-1.6,0-2.4-0.8-2.4-1.8v-10.8h-3.2
		v11.3C750.9,136.6,753,137.9,756.5,137.9z"/>
	<path class="st3" d="M769.2,126.4c0,6.2,7.4,3.1,7.4,6.9c0,0,0.3,1.9-3.2,1.9c-2.3,0-3-0.7-3.6-1.2l-1.4,2.4c0,0,1.8,1.5,5,1.5
		s6.7-1.1,6.7-5.4c0-5.5-7.6-4-7.5-6.5c0-2.1,2.3-1.7,2.6-1.7c1.2,0,3.2,1,3.2,1l1.6-2.3c0,0-2.3-1.3-5.2-1.3
		S769.2,123.2,769.2,126.4z"/>
	<path class="st3" d="M837.2,126.4c0,6.2,7.4,3.1,7.4,6.9c0,0,0.3,1.9-3.2,1.9c-2.3,0-3-0.7-3.6-1.2l-1.4,2.4c0,0,1.8,1.5,5,1.5
		s6.7-1.1,6.7-5.4c0-5.5-7.6-4-7.5-6.5c0-2.1,2.3-1.7,2.6-1.7c1.2,0,3.2,1,3.2,1l1.6-2.3c0,0-2.3-1.3-5.2-1.3
		C839.9,121.8,837.2,123.2,837.2,126.4z"/>
	<polygon class="st3" points="797.2,122.1 786.3,122.1 786.3,124.4 789.9,124.4 789.8,137.2 789.9,137.2 793,137.2 793.1,137.2 
		793,124.4 797.2,124.4 	"/>
	<path class="st3" d="M826.8,130.6c0,0,3.2-0.5,3.2-4.5c0-4.9-5.2-4.4-7.3-4.4h-2.8l0,15.4h2.9l0-6.3c1.3,0,3.7,4.7,4.4,6.3h3.6
		L826.8,130.6z M822.8,128.6l0-4.1c1.4,0,4.1-0.1,4.1,1.8C826.8,128.6,824,128.6,822.8,128.6z"/>
</g>
</svg>
