<?xml version="1.0" encoding="utf-8"?>
<!-- Generator: Adobe Illustrator 24.3.0, SVG Export Plug-In . SVG Version: 6.00 Build 0)  -->
<svg version="1.1" xmlns="http://www.w3.org/2000/svg" xmlns:xlink="http://www.w3.org/1999/xlink" x="0px" y="0px"
	 viewBox="0 0 946 279.7" style="enable-background:new 0 0 946 279.7;" xml:space="preserve">
<style type="text/css">
	.st0{fill:#F4F2C6;}
	.st1{fill:#E6E6E6;}
	.st2{fill:#313151;}
	.st3{fill:#4D4D4D;}
</style>
<g id="Capa_3">
	<rect y="139.9" class="st0" width="946" height="139.8"/>
	<rect class="st1" width="946" height="139.8"/>
</g>
<g id="Capa_2">
	<path class="st2" d="M49.1,158.5v16.8h-7.7c-1.9,0-3.5,1.6-3.5,3.5v56.6c0,1.4,1.2,2.6,2.6,2.6h8.5l0,17.2H35.6
		c-5.7,0-10.3-4.6-10.2-10.3l0.6-79c0-3.2,4.1-7.4,8.1-7.4H49.1z"/>
	<path class="st2" d="M912.5,227.5v6.2c0,0.3-0.2,0.5-0.5,0.5h-2.4c-0.7,0-1.2,0.5-1.2,1.2v11c0,0.5,0.4,0.9,0.9,0.9h2.6
		c0.3,0,0.5,0.2,0.5,0.5l0,6.2c0,0.3-0.2,0.5-0.5,0.5h-4.1c-1.9,0-3.5-1.6-3.5-3.5l0.2-21.4c0-1.1,1.4-2.5,2.8-2.5h4.6
		C912.3,227.1,912.5,227.3,912.5,227.5z"/>
	<path class="st2" d="M217,181.4v16h-6.2c-1.5,0-2.6,1.2-2.6,2.6v38.6c0,1.1,0.9,2,2,2h6.9l0,15.5H205c-4.3,0-7.8-4.5-7.8-8.8
		l0.5-59.2c0-2.5,3.1-6.7,7.9-6.7H217z"/>
	<path class="st2" d="M66.7,225.1h1.8c6.6,0,9.7-3.5,9.7-7.8v-29.4c0-4.1-3.3-7.5-7.5-7.5h-10c-5.7,0-8.1,3-8.1,7.4V249
		c0,3.4,2.7,6.2,6.2,6.2h17.1c0.9,0,1.7-0.8,1.7-1.7v-13.7c0-0.9-0.8-1.7-1.7-1.7h-10c-1.4,0-2.5-1.1-2.5-2.5v-7
		C63.3,226.6,64.9,225.1,66.7,225.1z M63,207.2v-8c0-1.3,1-2.3,2.3-2.3c0.6,0,1.2,0.3,1.6,0.7c0.4,0.4,0.7,1,0.7,1.6v8
		c0,1.3-1,2.3-2.3,2.3S63,208.5,63,207.2z"/>
	<path class="st2" d="M588,227h1.8c6.6,0,9.7-3.5,9.7-7.8v-29.4c0-4.1-3.3-7.5-7.5-7.5h-10c-5.7,0-8.1,3-8.1,7.4v61.1
		c0,3.4,2.7,6.2,6.2,6.2h17.1c0.9,0,1.7-0.8,1.7-1.7v-13.7c0-0.9-0.8-1.7-1.7-1.7h-10c-1.4,0-2.5-1.1-2.5-2.5v-7
		C584.6,228.5,586.2,227,588,227z M584.3,209.1v-8c0-1.3,1-2.3,2.3-2.3c0.6,0,1.2,0.3,1.6,0.7c0.4,0.4,0.7,1,0.7,1.6v8
		c0,1.3-1,2.3-2.3,2.3C585.4,211.4,584.3,210.4,584.3,209.1z"/>
	<path class="st2" d="M792.9,225.2h1.8c6.6,0,9.7-0.9,9.7-7.8v-31c0-3.6-2.9-6.5-6.5-6.5h-10.9c-5.7,0-8.1,3-8.1,7.4V249
		c0,3.4,2.7,6.2,6.2,6.2H803c0.4,0,0.8-0.3,0.8-0.8v-15.6c0-0.4-0.3-0.8-0.8-0.8H792c-1.4,0-2.5-1.1-2.5-2.5v-7
		C789.5,225.8,790.3,225.2,792.9,225.2z M789.2,207.3v-8.8c0-0.4,0.2-0.9,0.5-1.1c1.2-1,2.6-0.8,3.4,0c0.4,0.4,0.7,1,0.7,1.6v8.3
		C793.8,209.6,789.2,209.1,789.2,207.3z"/>
	<path class="st2" d="M851.9,225.2h1.8c6.1,0,9.7-2.5,9.7-7.8V188c0-4.5-3.6-8.1-8.1-8.1h-8.6c-5.7,0-8.1,3-8.1,7.4v57.9
		c0,4.3,4.3,9,8.5,9h15.7c0.4,0,0.8-0.3,0.8-0.8v-14.6c0-0.4-0.3-0.8-0.8-0.8H851c-1.4,0-2.5-1.1-2.5-2.5v-7
		C848.5,225.8,849.2,225.2,851.9,225.2z M848.9,208.4v-9.9c0-0.4,0.2-0.9,0.5-1.1c1.2-1,2.6-0.8,3.4,0c0.4,0.4,0.7,1,0.7,1.6v9.4
		C853.5,210.7,848.9,210.2,848.9,208.4z"/>
	<path class="st2" d="M132.5,217.8L132,188c0-8.1,1.1-7.5-7.5-7.5c0,0-1.4,0-1.9,0c-1.2,0-2.1,2-2.1,2s-0.7-2-2.9-2
		c-0.8,0-3.1,0-3.1,0c-7.5,0-7.7,2-7.7,7.8v61.1c0,3.4,2.7,6.2,6.2,6.2c1.9,0,3.3,0,4.3,0c1.7,0,2.6-0.7,3.9-1.9c0.5,0.6,1.6,2,3,2
		c1.4,0,5.9,0,5.9,0c0.9,0,1.7-0.8,1.7-1.7C131.9,254,132.5,222.1,132.5,217.8z M116.9,237.4l0.5-37.7c0-1.3,0.6-2.3,1.9-2.3
		c1.2,0,2,1.2,2,2.4l-0.7,37.2c0,1.3-0.3,2.3-1.6,2.3C117.8,239.3,116.9,238.5,116.9,237.4z"/>
	<path class="st2" d="M397.6,219.5l-0.4-30.4c0-8.1,2.2-7.5-6.3-7.5c0,0-1.4,0-1.9,0c-0.7,0-1.8,1.6-2.5,2.3c-0.4,0.4-1.1,0.4-1.5,0
		c-0.6-0.7-1.7-2.3-2.9-2.3c-0.8,0-2.4,0-2.4,0c-5.8,0-7.7,2.6-7.7,8.4v61.1c0,3.4,2.7,6.2,6.2,6.2c1.9,0,3.3,0,4.3,0
		c2.1,0,3.2-1.5,4.4-2.6c0.3-0.3,0.7-0.2,0.9,0.2c0.4,0.9,0.6,2.5,1.7,2.5c1,0,5.9,0,8.5,0c1.4,0,1.5-0.1,1.5-0.3
		c0-0.8-1.9-1.5-2.3-2.5c-0.8-1.6-0.8-2.3-0.7-5.2C396.4,240.5,397.6,222.8,397.6,219.5z M383.1,239.2l-0.7-37.7
		c0-1.3,0.6-2.3,1.9-2.3c1.2,0,2,1.2,2,2.4l0.4,37.2c0,1.3-0.3,2.3-1.6,2.3C384,241,383.1,240.2,383.1,239.2z"/>
	<path class="st2" d="M510.1,220l-0.4-30.4c0-8.1,2.2-7.5-6.3-7.5c0,0-2,0-2.5,0c-1.8,0-1.8,1.6-2.5,2.3c-0.4,0.4-0.6,0.4-1,0
		c-0.6-0.7-0.6-2.3-2.7-2.3c-0.8,0-2.4,0-2.4,0c-7.4,0-7.7,0.9-7.7,8.4v61.1c0,6,0,6.2,6.2,6.2c1.9,0,3.3,0,4.3,0
		c2.1,0,3.2-1.5,4.4-2.6c0.3-0.3,0.7-0.2,0.9,0.2c0.4,0.9,0.6,2.5,1.7,2.5c1,0,5.9,0,8.5,0c1.4,0,1.5-0.1,1.5-0.3
		c0-0.8-1.5-1.9-1.9-2.9c-0.8-1.6-0.7-1.9-0.6-4.8C509.5,241,510.1,223.2,510.1,220z M494.4,240.5l0.7-38.5c0-1.3,0.6-2.3,1.9-2.3
		c1.2,0,2,1.2,2,2.4l-0.2,37.8c0,1.3-0.8,2.4-2.1,2.4C495.5,242.3,494.4,241.5,494.4,240.5z"/>
	<path class="st2" d="M569.8,220l0.2-30.4c0-5.2,0.1-23,0.1-28.1c0-0.8-0.4-1.6-1.6-1.6c-2.2,0-6.4,0-8.1,0c-0.4,0-0.8,0.3-0.8,0.8
		c0.1,3.9,0.4,21.5-0.1,21.5c-1.8,0-2.5,0-4.7,0c-0.8,0-2.4,0-2.4,0c-6.1,0-8,0.9-8.3,8.4c-0.7,16.4-0.7,55.4-0.7,55.4
		c0,6,1.2,11.9,7.4,11.9c1.9,0,3.3,0,4.3,0c1.1,0,2-0.4,2.7-1c1-0.8,2.6-0.6,3.3,0.5c0.2,0.3,0.5,0.6,0.9,0.6c1,0,5.9,0,8.5,0
		c1.4,0,2.1-0.1,2.1-0.3c0-0.8-2-1.7-2.4-2.7c-0.8-1.6-0.6-2.1-0.5-5.1C569.9,241,569.8,223.2,569.8,220z M554.6,238.9l0.3-37.8
		c0-1.5,0.9-2.3,2.2-2.3c1.2,0,2.4,0.7,2.4,2.4l-0.4,37.6c0,1.3-0.8,2-2.1,2C555.8,240.9,554.6,240,554.6,238.9z"/>
	<path class="st2" d="M671.5,218.9l-0.4-30.4c0-8.1,2.2-7.5-6.3-7.5c0,0-2,0-2.5,0c-1,0-1.4,0.1-1.7,0.6c-0.7,1.2-1.1,1.2-1.9,0
		c-0.3-0.5-0.8-0.7-2-0.7c-0.8,0-2.9,0-2.9,0c-7.4,0-7.7,0.9-7.7,8.4v61.1c0,6,0,6.2,6.2,6.2c1.9,0,3.3,0,4.3,0c1,0,1.7-0.3,2.3-0.7
		c1-0.7,2.3-0.5,3.2,0.4c0.2,0.2,0.4,0.3,0.7,0.3c1,0,6.6,0,9.1,0c1.4,0,1.5-0.1,1.5-0.3c0-0.8-1.5-1.9-1.9-2.9
		c-0.8-1.6-0.7-1.9-0.6-4.8C670.9,239.9,671.5,222.1,671.5,218.9z M655.8,238.2l0.7-37.4c0-1.3,0.6-2.3,1.9-2.3c1.2,0,2,1.2,2,2.4
		l-0.2,36.7c0,1.3-0.8,2.4-2.1,2.4C656.9,240,655.8,239.2,655.8,238.2z"/>
	<path class="st2" d="M246.5,219.1l-0.4-29.8c0-8.1,1.7-7.5-6.8-7.5c0,0-1.4,0-1.9,0c-1.2,0-1,2.9-1,2.9s-2.4-2.9-4.6-2.9
		c-0.8,0-3.1,0-3.1,0c-7.5,0-7.7,2-7.7,7.8v61.1c0,3.4,2.7,6.2,6.2,6.2c1.9,0,17.1,0,17.1,0c0.9,0,1.7-0.8,1.7-1.7
		C245.9,255.2,246.5,223.4,246.5,219.1z M232,238.4l-0.5-37.4c0-1.3,0.6-2.3,1.9-2.3c1.2,0,2,1.2,2,2.4l0.2,36.8
		c0,1.3-0.3,2.3-1.6,2.3C232.8,240.2,232,239.4,232,238.4z"/>
	<path class="st2" d="M104,196.3c0,2-10-0.2-10,7.4v50.2c0,0.7-0.6,1.3-1.3,1.3h-8.9c-0.7,0-1.3-0.6-1.3-1.3v-72.1
		c0-0.7,0.6-1.3,1.3-1.3h8.9c0.7,0,1.3,0.6,1.3,1.3v4c2.7-3.2,4.4-5,6.1-5.6c1.8-0.6,3.9-0.2,3.9,0.3C104,181.4,104,190.2,104,196.3
		z"/>
	<path class="st2" d="M368,198.1c0,2-9.2-0.2-9.2,7.4v50.9c0,0.7-0.6,1.3-1.3,1.3h-8.9c-0.7,0-1.3-0.6-1.3-1.3v-72.8
		c0-0.7,0.6-1.3,1.3-1.3h8.9c0.7,0,1.3,0.6,1.3,1.3v1.9c2.2-2.7,2.9-3.2,4.6-3.3c2.8-0.1,4.6,0,4.6,0.7
		C368,183.9,368.1,192,368,198.1z"/>
	<path class="st2" d="M481.3,198.1c0,2-9.2-0.2-9.2,7.4v50.9c0,0.7-0.6,1.3-1.3,1.3h-8.9c-0.7,0-1.3-0.6-1.3-1.3v-72.8
		c0-0.7,0.6-1.3,1.3-1.3h8.3c0.7,0,1.3,0.6,1.3,1.3v0.6c0,0.4,0.5,0.6,0.8,0.3c1.6-1.8,2.9-2.2,4.4-2.3c2.8-0.1,4.6,0,4.6,0.7
		C481.3,183.9,481.4,192,481.3,198.1z"/>
	<path class="st2" d="M192.7,254.8c0,0.7-0.6,1.3-1.3,1.3h-8.9c-0.7,0-1.3-0.6-1.3-1.3v-72.8c0-0.7,0.6-1.3,1.3-1.3h8.9
		c0.7,0,1.3,0.6,1.3,1.3V254.8z"/>
	<path class="st2" d="M641.3,255.8c0,0.7-0.6,1.3-1.3,1.3h-8.9c-0.7,0-1.3-0.6-1.3-1.3v-95.1c0-0.7,0.6-1.3,1.3-1.3h8.9
		c0.7,0,1.3,0.6,1.3,1.3V255.8z"/>
	<path class="st2" d="M337.2,199.3l-0.1,1.5C337.1,200.2,337.1,199.7,337.2,199.3z"/>
	<path class="st2" d="M151.7,198.9L151.7,198.9L151.7,198.9C151.7,198.9,151.7,198.9,151.7,198.9z"/>
	<path class="st2" d="M167.6,180.8l-0.4,0.1C167.3,180.8,167.4,180.8,167.6,180.8z"/>
	<path class="st2" d="M151.7,198.9L151.7,198.9L151.7,198.9C151.7,198.9,151.7,198.9,151.7,198.9z"/>
	<path class="st2" d="M176.8,182.1v72.8c0,0.7-0.6,1.3-1.3,1.3h-7.9c-0.7,0-1.3-0.6-1.3-1.3v-55c0-2.5-4.4-2.4-4.4,0v55
		c0,0.7-0.6,1.3-1.3,1.3h-7.9c-0.7,0-1.3-0.6-1.3-1.3v-55.9h0c0,0,0,0,0-0.1c-0.1-2.5-4.4-2.3-4.4,0.1v55.9c0,0.7-0.6,1.3-1.3,1.3
		h-7.9c-0.7,0-1.3-0.6-1.3-1.3v-72.8c0-0.7,0.6-1.3,1.3-1.3h7.9c0.7,0,1.3,0.6,1.3,1.3v0.7c0,0.6,1.4,0,2.1-0.7c0,0,0,0,0-0.1
		c0.6-0.7,0.5-1.2,3.3-1.2c0.1,0,8,0,8,0c0.7,0,1.3,0.6,1.3,1.3v0.2c0,0.5,1,0.1,1.7-0.4c0.1-0.1,0.2-0.2,0.3-0.3
		c0.7-0.7,1.5-0.7,3.5-0.7h0c0.2,0,8,0,8,0C176.3,180.8,176.8,181.4,176.8,182.1z"/>
	<path class="st2" d="M167.6,180.8l-0.4,0.1C167.3,180.8,167.4,180.8,167.6,180.8z"/>
	<path class="st2" d="M116.5,174.5c0.5,0.5,5.7,0.6,6.2,0.2c0.3-0.3,8.8-16.2,7.6-16.2c-1.2,0-9.4-0.4-9.7,0.4
		C120.2,159.6,115.8,173.8,116.5,174.5z"/>
	<path class="st2" d="M192.5,173.5h-10.3c-0.3,0-0.5-0.2-0.5-0.5v-13.9c0-0.3,0.2-0.5,0.5-0.5h10.3c0.3,0,0.5,0.2,0.5,0.5V173
		C193,173.3,192.7,173.5,192.5,173.5z"/>
	<path class="st2" d="M774.9,254.8c0,0.7-0.6,1.3-1.3,1.3h-8.9c-0.7,0-1.3-0.6-1.3-1.3v-73.7c0-0.7,0.6-1.3,1.3-1.3h8.9
		c0.7,0,1.3,0.6,1.3,1.3V254.8z"/>
	<path class="st2" d="M774.4,173.7h-9.7c-0.3,0-0.5-0.2-0.5-0.5v-15c0-0.3,0.2-0.5,0.5-0.5h9.7c0.3,0,0.5,0.2,0.5,0.5v15
		C774.9,173.4,774.6,173.7,774.4,173.7z"/>
	<path class="st2" d="M337.2,199.3c-0.1,0.4-0.1,0.9-0.1,1.5l0.5,38.1c0,3,6.5,3.1,6.5,3.1v16.1h-9.5c-6.1,0-7.8-1.4-7.8-8.8
		l-0.2-48.6l0,0c0-1.7,0-2.3-0.8-2.5c-0.3-0.1-2.5-0.1-3.7-0.1c-0.4,0-0.7-0.3-0.7-0.7v-15.1c0-0.3,0.3-0.6,0.6-0.6h3.3
		c0.2,0,0.4-0.2,0.4-0.4v-14c0-0.7,0.6-1.3,1.3-1.3h8.9c0.7,0,1.3,0.6,1.3,1.3v13.9c0,0.3,0.2,0.5,0.5,0.5h6.4
		c0.3,0,0.5,0.2,0.5,0.5v15.3c0,0.3-0.3,0.6-0.6,0.6h-4.2C337.9,198.2,337.3,198.2,337.2,199.3z"/>
	<path class="st2" d="M411.1,257.6h-9.6c-0.4,0-0.8-0.3-0.8-0.8V242c0-0.4,0.3-0.8,0.8-0.8h9.6c0.4,0,0.8,0.3,0.8,0.8v14.9
		C411.9,257.3,411.6,257.6,411.1,257.6z"/>
	<path class="st2" d="M524.4,257.6h-10.5c-0.5,0-0.9-0.4-0.9-0.9V243c0-0.5,0.4-0.9,0.9-0.9h10.5c0.5,0,0.9,0.4,0.9,0.9v13.7
		C525.3,257.2,524.9,257.6,524.4,257.6z"/>
	<path class="st2" d="M305.8,183.9c0-6.6-7.2-6.2-7.2,0v72.4c0,0.5-0.4,1-1,1h-11c-0.5,0-1-0.4-1-1v-88c0-1.9-6.3-8.5-5.3-8.5
		s13.8,0,15,0c1,0,2.2,2,2.5,3.3c0.1,0.2,0.4,0.3,0.5,0.1c1.3-1.6,2-4,3.5-4h13.8c1,0,1.8,0.8,1.8,1.8l1.3,95.3c0,0.5-0.4,1-1,1
		h-11.3c-0.5,0-1-0.4-1-1L305.8,183.9z"/>
	<path class="st2" d="M746.4,181.9c0.1-3.6-0.7-5.6-3-5.6c-2.3,0-3.3,1.9-3.3,6v72.4c0,0.5-0.4,1-1,1h-11c-0.5,0-1-0.4-1-1l0-91.6
		c0-1.9-4.4-4.8-3.3-4.8c1.1,0,11.9,0,13,0c1,0,2.2,2,2.5,3.3c0.1,0.2,0.4,0.3,0.5,0.1c1.3-1.6,2.4-3.5,3.9-3.5h9.2
		c4.5,0,5.9,3.3,5.9,6l0.4,90.5c0,0.5-0.4,1-1,1h-10.9c-0.5,0-1-0.4-1-1L746.4,181.9z"/>
	<path class="st2" d="M455.8,178.3h-7.6c-1.9,0-3.5,1.6-3.5,3.5v11.1c0,1.3,1,2.3,2.3,2.3h4.2c3.2,0,5.7,2.6,5.7,5.7v44
		c0,6.8-3.9,12.5-10.7,12.5l-13.8-0.2c-0.6,0-1.1-0.5-1.1-1.1v-15.5c0-0.7,0.6-1.3,1.3-1.3h9.9c0.6,0,1.2-0.5,1.2-1.2v-20.8
		c0-1.3-1.1-2.4-2.4-2.4h-4.2c-2.8,0-5.1-2.3-5.1-5.1v-40.8c0-5.1,5.1-8.9,11.4-8.9h12.4c0.6,0,1.1,0.5,1.1,1.1v15.9
		C456.9,177.8,456.4,178.3,455.8,178.3z"/>
	<path class="st2" d="M694.9,197.6h-6.3c-1.6,0-2.9,1.3-2.9,2.9v7.4c0,1.1,0.9,1.9,1.9,1.9h3.8c2.4,0,4.4,2,4.4,4.4v30.5
		c0,5.6-3.2,11.4-8.9,11.4l-11.5-0.2c-0.5,0-0.9-0.4-0.9-0.9v-14c0-0.6,0.5-1.1,1.1-1.1l8.6-0.4c0.5,0,1-0.4,1-1l-0.4-10
		c0-0.9-0.7-1.6-1.6-1.6h-3c-2.8,0-5-2.2-5-5v-34.1c0-4.2,4.2-7.4,9.4-7.4H695c0.5,0,0.9,0.4,0.9,0.9v15.2
		C695.9,197.1,695.4,197.6,694.9,197.6z"/>
	<path class="st2" d="M887.4,195.7h-6.3c-1.6,0-2.9,1.3-2.9,2.9v9.2c0,1.1,0.9,1.9,1.9,1.9h4.1c2.3,0,4.1,1.9,4.1,4.1v30.8
		c0,6.5-3.2,9.5-8.9,9.5l-11.5-0.2c-0.5,0-0.9-0.4-0.9-0.9v-13.6c0-0.6,0.5-1.1,1.1-1.1l9.5-0.1c0.5,0,1-0.4,1-1l-0.2-10.4
		c0-0.9-0.7-1.6-1.6-1.6h-4.2c-2.8,0-5-2.2-5-5v-32.4c0-4.2,4.2-7.4,9.4-7.4h10.3c0.5,0,0.9,0.4,0.9,0.9v13.4
		C888.4,195.3,888,195.7,887.4,195.7z"/>
	<path class="st2" d="M809.7,179.2c-0.6,0-1.1,0.5-1.1,1.1v57.4c0,2.4,3.9,17.1,6.2,17.1s9.5,0,11.4,0c1.9,0,6.7-11.5,6.7-17.6
		c0-5.6,0.6-49.3,0.6-56.9c0-0.6-0.5-1.1-1.1-1.1h-8.7c-0.6,0-1.1,0.5-1.1,1.1v51.2c0,1-0.3,2-0.7,2.9l-0.8,1.4
		c-0.2,0.4-0.8,0.4-1.1,0.1l-0.6-0.9c-0.7-1-1.1-2.2-1.1-3.4v-51.2c0-0.6-0.5-1.1-1.1-1.1L809.7,179.2z"/>
	<path class="st2" d="M903.7,199.4v6.3c0,0.3,0.2,0.5,0.5,0.5h8.4c0.3,0,0.5-0.2,0.5-0.5v-14.3c0-0.3-0.2-0.5-0.5-0.5h-4.8
		c-0.3,0-0.5-0.2-0.5-0.5v-2.9c0-0.3,0.2-0.5,0.5-0.5h4.8c0.3,0,0.5-0.2,0.5-0.5V180c0-0.3-0.2-0.5-0.5-0.5h-6.3
		c-1.4,0-2.6,1.2-2.6,2.6v11.8c0,0.8,0.6,1.4,1.4,1.4h4.8c0.3,0,0.5,0.2,0.5,0.5v2.5c0,0.3-0.2,0.5-0.5,0.5h-5.8
		C904,198.9,903.7,199.1,903.7,199.4z"/>
	<path class="st2" d="M918.7,242.8h-3.5c-0.5,0-0.9,0.4-0.9,0.9v9.8c0,0.5,0.4,0.9,0.9,0.9h3.5c0.5,0,0.9-0.4,0.9-0.9v-9.8
		C919.6,243.3,919.2,242.8,918.7,242.8z M917.8,250.1c0,0.3-0.2,0.5-0.5,0.5h-1.1c-0.3,0-0.5-0.2-0.5-0.5v-3.9
		c0-0.3,0.2-0.5,0.5-0.5h1.1c0.3,0,0.5,0.2,0.5,0.5V250.1z"/>
	<path class="st2" d="M925.6,242.8h-3.5c-0.5,0-0.9,0.4-0.9,0.9v9.8c0,0.5,0.4,0.9,0.9,0.9h3.5c0.5,0,0.9-0.4,0.9-0.9v-9.8
		C926.5,243.3,926.1,242.8,925.6,242.8z M924.8,250.1c0,0.2-0.1,0.3-0.3,0.3h-1.4c-0.2,0-0.3-0.1-0.3-0.3v-4.2
		c0-0.2,0.1-0.3,0.3-0.3h1.4c0.2,0,0.3,0.1,0.3,0.3V250.1z"/>
	<path class="st2" d="M932.6,242.8H929c-0.5,0-0.9,0.4-0.9,0.9v10.4c0,0.1,0.1,0.2,0.2,0.2h1.2c0.1,0,0.3-0.1,0.3-0.3v-3.1
		c0-0.2,0.2-0.4,0.4-0.4h2c0.7,0,1.4-0.6,1.4-1.3v-5.7C933.5,243.3,933.1,242.8,932.6,242.8z M931.7,248.1c0,0.2-0.1,0.3-0.3,0.3
		H930c-0.2,0-0.3-0.1-0.3-0.3v-2.2c0-0.2,0.1-0.3,0.3-0.3h1.4c0.2,0,0.3,0.1,0.3,0.3V248.1z"/>
	<path class="st2" d="M936.1,254.7h-0.6c-0.4,0-0.7-0.3-0.7-0.7v-2.8c0-0.4,0.3-0.7,0.7-0.7h0.6c0.4,0,0.7,0.3,0.7,0.7v2.8
		C936.8,254.4,936.5,254.7,936.1,254.7z"/>
	<path class="st2" d="M936.1,206.4h-0.6c-0.4,0-0.7-0.3-0.7-0.7v-2.3c0-0.4,0.3-0.7,0.7-0.7h0.6c0.4,0,0.7,0.3,0.7,0.7v2.3
		C936.8,206,936.5,206.4,936.1,206.4z"/>
	<path class="st2" d="M922.1,195.1h-5.5c-0.2,0-0.4,0.2-0.4,0.4v1.8c0,0.2,0.2,0.4,0.4,0.4h3.7c0.3,0,0.5,0.2,0.5,0.5v0.5
		c0,0.3-0.2,0.5-0.5,0.5h-3.4c-0.4,0-0.6,0.3-0.6,0.6v5.8c0,0.3,0.2,0.5,0.5,0.5h5.7c0.3,0,0.5-0.2,0.5-0.5v-10
		C922.8,195.4,922.5,195.1,922.1,195.1z M920.4,203.5c0,0.3-0.2,0.5-0.5,0.5h-1c-0.3,0-0.5-0.2-0.5-0.5l0.2-1.7
		c0-0.3,0.2-0.5,0.5-0.5h1c0.3,0,0.5,0.2,0.5,0.5L920.4,203.5z"/>
	<path class="st2" d="M929.7,191.7v3.6c0,0.2-0.1,0.3-0.3,0.3h-3.5c-0.5,0-0.9,0.4-0.9,0.9v9.2c0,0.3,0.2,0.5,0.5,0.5h6.5
		c0.3,0,0.5-0.2,0.5-0.5v-14c0-0.1-0.1-0.3-0.3-0.3H930C929.9,191.4,929.7,191.5,929.7,191.7z M929.8,203.3h-1.6
		c-0.3,0-0.5-0.2-0.5-0.5v-4.1c0-0.3,0.2-0.5,0.5-0.5h1.6c0.3,0,0.5,0.2,0.5,0.5v4.1C930.3,203.1,930.1,203.3,929.8,203.3z"/>
	<path class="st2" d="M903.1,219l0.4,1.6c0.1,0.3,0.4,0.5,0.7,0.4l30.8-8.5c0.3-0.1,0.5-0.4,0.4-0.7l-0.5-1.7
		c-0.1-0.3-0.4-0.4-0.7-0.4l-30.7,8.6C903.2,218.4,903.1,218.7,903.1,219z"/>
	<path class="st3" d="M49.1,18.7v16.8h-7.7c-1.9,0-3.5,1.6-3.5,3.5v56.6c0,1.4,1.2,2.6,2.6,2.6h8.5l0,17.2H35.6
		c-5.7,0-10.3-4.6-10.2-10.3l0.6-79c0-3.2,4.1-7.4,8.1-7.4H49.1z"/>
	<path class="st3" d="M912.5,87.7v6.2c0,0.3-0.2,0.5-0.5,0.5h-2.4c-0.7,0-1.2,0.5-1.2,1.2v11c0,0.5,0.4,0.9,0.9,0.9h2.6
		c0.3,0,0.5,0.2,0.5,0.5l0,6.2c0,0.3-0.2,0.5-0.5,0.5h-4.1c-1.9,0-3.5-1.6-3.5-3.5l0.2-21.4c0-1.1,1.4-2.5,2.8-2.5h4.6
		C912.3,87.2,912.5,87.4,912.5,87.7z"/>
	<path class="st3" d="M217,41.6v16h-6.2c-1.5,0-2.6,1.2-2.6,2.6v38.6c0,1.1,0.9,2,2,2h6.9l0,15.5H205c-4.3,0-7.8-4.5-7.8-8.8
		l0.5-59.2c0-2.5,3.1-6.7,7.9-6.7H217z"/>
	<path class="st3" d="M66.7,85.3h1.8c6.6,0,9.7-3.5,9.7-7.8V48.1c0-4.1-3.3-7.5-7.5-7.5h-10c-5.7,0-8.1,3-8.1,7.4v61.1
		c0,3.4,2.7,6.2,6.2,6.2h17.1c0.9,0,1.7-0.8,1.7-1.7V99.9c0-0.9-0.8-1.7-1.7-1.7h-10c-1.4,0-2.5-1.1-2.5-2.5v-7
		C63.3,86.8,64.9,85.3,66.7,85.3z M63,67.4v-8c0-1.3,1-2.3,2.3-2.3c0.6,0,1.2,0.3,1.6,0.7c0.4,0.4,0.7,1,0.7,1.6v8
		c0,1.3-1,2.3-2.3,2.3S63,68.6,63,67.4z"/>
	<path class="st3" d="M588,87.2h1.8c6.6,0,9.7-3.5,9.7-7.8V50c0-4.1-3.3-7.5-7.5-7.5h-10c-5.7,0-8.1,3-8.1,7.4V111
		c0,3.4,2.7,6.2,6.2,6.2h17.1c0.9,0,1.7-0.8,1.7-1.7v-13.7c0-0.9-0.8-1.7-1.7-1.7h-10c-1.4,0-2.5-1.1-2.5-2.5v-7
		C584.6,88.7,586.2,87.2,588,87.2z M584.3,69.3v-8c0-1.3,1-2.3,2.3-2.3c0.6,0,1.2,0.3,1.6,0.7c0.4,0.4,0.7,1,0.7,1.6v8
		c0,1.3-1,2.3-2.3,2.3C585.4,71.6,584.3,70.5,584.3,69.3z"/>
	<path class="st3" d="M792.9,85.3h1.8c6.6,0,9.7-0.9,9.7-7.8v-31c0-3.6-2.9-6.5-6.5-6.5h-10.9c-5.7,0-8.1,3-8.1,7.4v61.8
		c0,3.4,2.7,6.2,6.2,6.2H803c0.4,0,0.8-0.3,0.8-0.8V99c0-0.4-0.3-0.8-0.8-0.8H792c-1.4,0-2.5-1.1-2.5-2.5v-7
		C789.5,86,790.3,85.3,792.9,85.3z M789.2,67.4v-8.8c0-0.4,0.2-0.9,0.5-1.1c1.2-1,2.6-0.8,3.4,0c0.4,0.4,0.7,1,0.7,1.6v8.3
		C793.8,69.8,789.2,69.3,789.2,67.4z"/>
	<path class="st3" d="M851.9,85.3h1.8c6.1,0,9.7-2.5,9.7-7.8V48.2c0-4.5-3.6-8.1-8.1-8.1h-8.6c-5.7,0-8.1,3-8.1,7.4v57.9
		c0,4.3,4.3,9,8.5,9h15.7c0.4,0,0.8-0.3,0.8-0.8V99c0-0.4-0.3-0.8-0.8-0.8H851c-1.4,0-2.5-1.1-2.5-2.5v-7
		C848.5,86,849.2,85.3,851.9,85.3z M848.9,68.5v-9.9c0-0.4,0.2-0.9,0.5-1.1c1.2-1,2.6-0.8,3.4,0c0.4,0.4,0.7,1,0.7,1.6v9.4
		C853.5,70.9,848.9,70.4,848.9,68.5z"/>
	<path class="st3" d="M132.5,78L132,48.2c0-8.1,1.1-7.5-7.5-7.5c0,0-1.4,0-1.9,0c-1.2,0-2.1,2-2.1,2s-0.7-2-2.9-2
		c-0.8,0-3.1,0-3.1,0c-7.5,0-7.7,2-7.7,7.8v61.1c0,3.4,2.7,6.2,6.2,6.2c1.9,0,3.3,0,4.3,0c1.7,0,2.6-0.7,3.9-1.9c0.5,0.6,1.6,2,3,2
		c1.4,0,5.9,0,5.9,0c0.9,0,1.7-0.8,1.7-1.7C131.9,114.1,132.5,82.3,132.5,78z M116.9,97.6l0.5-37.7c0-1.3,0.6-2.3,1.9-2.3
		c1.2,0,2,1.2,2,2.4l-0.7,37.2c0,1.3-0.3,2.3-1.6,2.3C117.8,99.4,116.9,98.6,116.9,97.6z"/>
	<path class="st3" d="M397.6,79.7l-0.4-30.4c0-8.1,2.2-7.5-6.3-7.5c0,0-1.4,0-1.9,0c-0.7,0-1.8,1.6-2.5,2.3c-0.4,0.4-1.1,0.4-1.5,0
		c-0.6-0.7-1.7-2.3-2.9-2.3c-0.8,0-2.4,0-2.4,0c-5.8,0-7.7,2.6-7.7,8.4v61.1c0,3.4,2.7,6.2,6.2,6.2c1.9,0,3.3,0,4.3,0
		c2.1,0,3.2-1.5,4.4-2.6c0.3-0.3,0.7-0.2,0.9,0.2c0.4,0.9,0.6,2.5,1.7,2.5c1,0,5.9,0,8.5,0c1.4,0,1.5-0.1,1.5-0.3
		c0-0.8-1.9-1.5-2.3-2.5c-0.8-1.6-0.8-2.3-0.7-5.2C396.4,100.7,397.6,82.9,397.6,79.7z M383.1,99.3l-0.7-37.7c0-1.3,0.6-2.3,1.9-2.3
		c1.2,0,2,1.2,2,2.4l0.4,37.2c0,1.3-0.3,2.3-1.6,2.3C384,101.1,383.1,100.4,383.1,99.3z"/>
	<path class="st3" d="M510.1,80.1l-0.4-30.4c0-8.1,2.2-7.5-6.3-7.5c0,0-2,0-2.5,0c-1.8,0-1.8,1.6-2.5,2.3c-0.4,0.4-0.6,0.4-1,0
		c-0.6-0.7-0.6-2.3-2.7-2.3c-0.8,0-2.4,0-2.4,0c-7.4,0-7.7,0.9-7.7,8.4v61.1c0,6,0,6.2,6.2,6.2c1.9,0,3.3,0,4.3,0
		c2.1,0,3.2-1.5,4.4-2.6c0.3-0.3,0.7-0.2,0.9,0.2c0.4,0.9,0.6,2.5,1.7,2.5c1,0,5.9,0,8.5,0c1.4,0,1.5-0.1,1.5-0.3
		c0-0.8-1.5-1.9-1.9-2.9c-0.8-1.6-0.7-1.9-0.6-4.8C509.5,101.1,510.1,83.4,510.1,80.1z M494.4,100.6l0.7-38.5c0-1.3,0.6-2.3,1.9-2.3
		c1.2,0,2,1.2,2,2.4l-0.2,37.8c0,1.3-0.8,2.4-2.1,2.4C495.5,102.4,494.4,101.7,494.4,100.6z"/>
	<path class="st3" d="M569.8,80.1l0.2-30.4c0-5.2,0.1-23,0.1-28.1c0-0.8-0.4-1.6-1.6-1.6c-2.2,0-6.4,0-8.1,0c-0.4,0-0.8,0.3-0.8,0.8
		c0.1,3.9,0.4,21.5-0.1,21.5c-1.8,0-2.5,0-4.7,0c-0.8,0-2.4,0-2.4,0c-6.1,0-8,0.9-8.3,8.4c-0.7,16.4-0.7,55.4-0.7,55.4
		c0,6,1.2,11.9,7.4,11.9c1.9,0,3.3,0,4.3,0c1.1,0,2-0.4,2.7-1c1-0.8,2.6-0.6,3.3,0.5c0.2,0.3,0.5,0.6,0.9,0.6c1,0,5.9,0,8.5,0
		c1.4,0,2.1-0.1,2.1-0.3c0-0.8-2-1.7-2.4-2.7c-0.8-1.6-0.6-2.1-0.5-5.1C569.9,101.1,569.8,83.4,569.8,80.1z M554.6,99.1l0.3-37.8
		c0-1.5,0.9-2.3,2.2-2.3c1.2,0,2.4,0.7,2.4,2.4L559.1,99c0,1.3-0.8,2-2.1,2C555.8,101,554.6,100.1,554.6,99.1z"/>
	<path class="st3" d="M671.5,79l-0.4-30.4c0-8.1,2.2-7.5-6.3-7.5c0,0-2,0-2.5,0c-1,0-1.4,0.1-1.7,0.6c-0.7,1.2-1.1,1.2-1.9,0
		c-0.3-0.5-0.8-0.7-2-0.7c-0.8,0-2.9,0-2.9,0c-7.4,0-7.7,0.9-7.7,8.4v61.1c0,6,0,6.2,6.2,6.2c1.9,0,3.3,0,4.3,0c1,0,1.7-0.3,2.3-0.7
		c1-0.7,2.3-0.5,3.2,0.4c0.2,0.2,0.4,0.3,0.7,0.3c1,0,6.6,0,9.1,0c1.4,0,1.5-0.1,1.5-0.3c0-0.8-1.5-1.9-1.9-2.9
		c-0.8-1.6-0.7-1.9-0.6-4.8C670.9,100,671.5,82.3,671.5,79z M655.8,98.3l0.7-37.4c0-1.3,0.6-2.3,1.9-2.3c1.2,0,2,1.2,2,2.4L660,97.7
		c0,1.3-0.8,2.4-2.1,2.4C656.9,100.1,655.8,99.4,655.8,98.3z"/>
	<path class="st3" d="M246.5,79.2l-0.4-29.8c0-8.1,1.7-7.5-6.8-7.5c0,0-1.4,0-1.9,0c-1.2,0-1,2.9-1,2.9s-2.4-2.9-4.6-2.9
		c-0.8,0-3.1,0-3.1,0c-7.5,0-7.7,2-7.7,7.8v61.1c0,3.4,2.7,6.2,6.2,6.2c1.9,0,17.1,0,17.1,0c0.9,0,1.7-0.8,1.7-1.7
		C245.9,115.4,246.5,83.5,246.5,79.2z M232,98.5l-0.5-37.4c0-1.3,0.6-2.3,1.9-2.3c1.2,0,2,1.2,2,2.4l0.2,36.8c0,1.3-0.3,2.3-1.6,2.3
		C232.8,100.4,232,99.6,232,98.5z"/>
	<path class="st3" d="M104,56.4c0,2-10-0.2-10,7.4v50.2c0,0.7-0.6,1.3-1.3,1.3h-8.9c-0.7,0-1.3-0.6-1.3-1.3V41.9
		c0-0.7,0.6-1.3,1.3-1.3h8.9c0.7,0,1.3,0.6,1.3,1.3v4c2.7-3.2,4.4-5,6.1-5.6c1.8-0.6,3.9-0.2,3.9,0.3C104,41.5,104,50.4,104,56.4z"
		/>
	<path class="st3" d="M368,58.2c0,2-9.2-0.2-9.2,7.4v50.9c0,0.7-0.6,1.3-1.3,1.3h-8.9c-0.7,0-1.3-0.6-1.3-1.3V43.7
		c0-0.7,0.6-1.3,1.3-1.3h8.9c0.7,0,1.3,0.6,1.3,1.3v1.9c2.2-2.7,2.9-3.2,4.6-3.3c2.8-0.1,4.6,0,4.6,0.7C368,44,368.1,52.1,368,58.2z
		"/>
	<path class="st3" d="M481.3,58.2c0,2-9.2-0.2-9.2,7.4v50.9c0,0.7-0.6,1.3-1.3,1.3h-8.9c-0.7,0-1.3-0.6-1.3-1.3V43.7
		c0-0.7,0.6-1.3,1.3-1.3h8.3c0.7,0,1.3,0.6,1.3,1.3v0.6c0,0.4,0.5,0.6,0.8,0.3c1.6-1.8,2.9-2.2,4.4-2.3c2.8-0.1,4.6,0,4.6,0.7
		C481.3,44,481.4,52.1,481.3,58.2z"/>
	<path class="st3" d="M192.7,115c0,0.7-0.6,1.3-1.3,1.3h-8.9c-0.7,0-1.3-0.6-1.3-1.3V42.2c0-0.7,0.6-1.3,1.3-1.3h8.9
		c0.7,0,1.3,0.6,1.3,1.3V115z"/>
	<path class="st3" d="M641.3,115.9c0,0.7-0.6,1.3-1.3,1.3h-8.9c-0.7,0-1.3-0.6-1.3-1.3V20.9c0-0.7,0.6-1.3,1.3-1.3h8.9
		c0.7,0,1.3,0.6,1.3,1.3V115.9z"/>
	<path class="st3" d="M337.2,59.4l-0.1,1.5C337.1,60.3,337.1,59.8,337.2,59.4z"/>
	<path class="st3" d="M151.7,59.1L151.7,59.1L151.7,59.1C151.7,59,151.7,59.1,151.7,59.1z"/>
	<path class="st3" d="M167.6,41l-0.4,0.1C167.3,41,167.4,41,167.6,41z"/>
	<path class="st3" d="M151.7,59.1L151.7,59.1L151.7,59.1C151.7,59,151.7,59.1,151.7,59.1z"/>
	<path class="st3" d="M176.8,42.2V115c0,0.7-0.6,1.3-1.3,1.3h-7.9c-0.7,0-1.3-0.6-1.3-1.3V60c0-2.5-4.4-2.4-4.4,0v55
		c0,0.7-0.6,1.3-1.3,1.3h-7.9c-0.7,0-1.3-0.6-1.3-1.3V59.1h0c0,0,0,0,0-0.1c-0.1-2.5-4.4-2.3-4.4,0.1V115c0,0.7-0.6,1.3-1.3,1.3
		h-7.9c-0.7,0-1.3-0.6-1.3-1.3V42.2c0-0.7,0.6-1.3,1.3-1.3h7.9c0.7,0,1.3,0.6,1.3,1.3v0.7c0,0.6,1.4,0,2.1-0.7c0,0,0,0,0-0.1
		c0.6-0.7,0.5-1.2,3.3-1.2c0.1,0,8,0,8,0c0.7,0,1.3,0.6,1.3,1.3v0.2c0,0.5,1,0.1,1.7-0.4c0.1-0.1,0.2-0.2,0.3-0.3
		c0.7-0.7,1.5-0.7,3.5-0.7h0c0.2,0,8,0,8,0C176.3,40.9,176.8,41.5,176.8,42.2z"/>
	<path class="st3" d="M167.6,41l-0.4,0.1C167.3,41,167.4,41,167.6,41z"/>
	<path class="st3" d="M116.5,34.6c0.5,0.5,5.7,0.6,6.2,0.2c0.3-0.3,8.8-16.2,7.6-16.2c-1.2,0-9.4-0.4-9.7,0.4
		C120.2,19.7,115.8,34,116.5,34.6z"/>
	<path class="st3" d="M192.5,33.6h-10.3c-0.3,0-0.5-0.2-0.5-0.5V19.3c0-0.3,0.2-0.5,0.5-0.5h10.3c0.3,0,0.5,0.2,0.5,0.5v13.9
		C193,33.4,192.7,33.6,192.5,33.6z"/>
	<path class="st3" d="M774.9,115c0,0.7-0.6,1.3-1.3,1.3h-8.9c-0.7,0-1.3-0.6-1.3-1.3V41.3c0-0.7,0.6-1.3,1.3-1.3h8.9
		c0.7,0,1.3,0.6,1.3,1.3V115z"/>
	<path class="st3" d="M774.4,33.8h-9.7c-0.3,0-0.5-0.2-0.5-0.5v-15c0-0.3,0.2-0.5,0.5-0.5h9.7c0.3,0,0.5,0.2,0.5,0.5v15
		C774.9,33.6,774.6,33.8,774.4,33.8z"/>
	<path class="st3" d="M337.2,59.4c-0.1,0.4-0.1,0.9-0.1,1.5l0.5,38.1c0,3,6.5,3.1,6.5,3.1v16.1h-9.5c-6.1,0-7.8-1.4-7.8-8.8
		L326.6,61l0,0c0-1.7,0-2.3-0.8-2.5c-0.3-0.1-2.5-0.1-3.7-0.1c-0.4,0-0.7-0.3-0.7-0.7V42.5c0-0.3,0.3-0.6,0.6-0.6h3.3
		c0.2,0,0.4-0.2,0.4-0.4v-14c0-0.7,0.6-1.3,1.3-1.3h8.9c0.7,0,1.3,0.6,1.3,1.3v13.9c0,0.3,0.2,0.5,0.5,0.5h6.4
		c0.3,0,0.5,0.2,0.5,0.5v15.3c0,0.3-0.3,0.6-0.6,0.6h-4.2C337.9,58.3,337.3,58.4,337.2,59.4z"/>
	<path class="st3" d="M411.1,117.8h-9.6c-0.4,0-0.8-0.3-0.8-0.8v-14.9c0-0.4,0.3-0.8,0.8-0.8h9.6c0.4,0,0.8,0.3,0.8,0.8V117
		C411.9,117.5,411.6,117.8,411.1,117.8z"/>
	<path class="st3" d="M524.4,117.8h-10.5c-0.5,0-0.9-0.4-0.9-0.9v-13.7c0-0.5,0.4-0.9,0.9-0.9h10.5c0.5,0,0.9,0.4,0.9,0.9v13.7
		C525.3,117.4,524.9,117.8,524.4,117.8z"/>
	<path class="st3" d="M305.8,44c0-6.6-7.2-6.2-7.2,0v72.4c0,0.5-0.4,1-1,1h-11c-0.5,0-1-0.4-1-1v-88c0-1.9-6.3-8.5-5.3-8.5
		s13.8,0,15,0c1,0,2.2,2,2.5,3.3c0.1,0.2,0.4,0.3,0.5,0.1c1.3-1.6,2-4,3.5-4h13.8c1,0,1.8,0.8,1.8,1.8l1.3,95.3c0,0.5-0.4,1-1,1
		h-11.3c-0.5,0-1-0.4-1-1L305.8,44z"/>
	<path class="st3" d="M746.4,42c0.1-3.6-0.7-5.6-3-5.6c-2.3,0-3.3,1.9-3.3,6v72.4c0,0.5-0.4,1-1,1h-11c-0.5,0-1-0.4-1-1l0-91.6
		c0-1.9-4.4-4.8-3.3-4.8c1.1,0,11.9,0,13,0c1,0,2.2,2,2.5,3.3c0.1,0.2,0.4,0.3,0.5,0.1c1.3-1.6,2.4-3.5,3.9-3.5h9.2
		c4.5,0,5.9,3.3,5.9,6l0.4,90.5c0,0.5-0.4,1-1,1h-10.9c-0.5,0-1-0.4-1-1L746.4,42z"/>
	<path class="st3" d="M455.8,38.5h-7.6c-1.9,0-3.5,1.6-3.5,3.5V53c0,1.3,1,2.3,2.3,2.3h4.2c3.2,0,5.7,2.6,5.7,5.7v44
		c0,6.8-3.9,12.5-10.7,12.5l-13.8-0.2c-0.6,0-1.1-0.5-1.1-1.1v-15.5c0-0.7,0.6-1.3,1.3-1.3h9.9c0.6,0,1.2-0.5,1.2-1.2V77.5
		c0-1.3-1.1-2.4-2.4-2.4h-4.2c-2.8,0-5.1-2.3-5.1-5.1V29.3c0-5.1,5.1-8.9,11.4-8.9h12.4c0.6,0,1.1,0.5,1.1,1.1v15.9
		C456.9,38,456.4,38.5,455.8,38.5z"/>
	<path class="st3" d="M694.9,57.7h-6.3c-1.6,0-2.9,1.3-2.9,2.9V68c0,1.1,0.9,1.9,1.9,1.9h3.8c2.4,0,4.4,2,4.4,4.4v30.5
		c0,5.6-3.2,11.4-8.9,11.4l-11.5-0.2c-0.5,0-0.9-0.4-0.9-0.9v-14c0-0.6,0.5-1.1,1.1-1.1l8.6-0.4c0.5,0,1-0.4,1-1l-0.4-10
		c0-0.9-0.7-1.6-1.6-1.6h-3c-2.8,0-5-2.2-5-5V48.1c0-4.2,4.2-7.4,9.4-7.4H695c0.5,0,0.9,0.4,0.9,0.9v15.2
		C695.9,57.3,695.4,57.7,694.9,57.7z"/>
	<path class="st3" d="M887.4,55.9h-6.3c-1.6,0-2.9,1.3-2.9,2.9V68c0,1.1,0.9,1.9,1.9,1.9h4.1c2.3,0,4.1,1.9,4.1,4.1v30.8
		c0,6.5-3.2,9.5-8.9,9.5l-11.5-0.2c-0.5,0-0.9-0.4-0.9-0.9V99.7c0-0.6,0.5-1.1,1.1-1.1l9.5-0.1c0.5,0,1-0.4,1-1l-0.2-10.4
		c0-0.9-0.7-1.6-1.6-1.6h-4.2c-2.8,0-5-2.2-5-5V48.1c0-4.2,4.2-7.4,9.4-7.4h10.3c0.5,0,0.9,0.4,0.9,0.9v13.4
		C888.4,55.5,888,55.9,887.4,55.9z"/>
	<path class="st3" d="M809.7,39.4c-0.6,0-1.1,0.5-1.1,1.1v57.4c0,2.4,3.9,17.1,6.2,17.1s9.5,0,11.4,0c1.9,0,6.7-11.5,6.7-17.6
		c0-5.6,0.6-49.3,0.6-56.9c0-0.6-0.5-1.1-1.1-1.1h-8.7c-0.6,0-1.1,0.5-1.1,1.1v51.2c0,1-0.3,2-0.7,2.9l-0.8,1.4
		c-0.2,0.4-0.8,0.4-1.1,0.1l-0.6-0.9c-0.7-1-1.1-2.2-1.1-3.4V40.4c0-0.6-0.5-1.1-1.1-1.1L809.7,39.4z"/>
	<path class="st3" d="M903.7,59.5v6.3c0,0.3,0.2,0.5,0.5,0.5h8.4c0.3,0,0.5-0.2,0.5-0.5V51.6c0-0.3-0.2-0.5-0.5-0.5h-4.8
		c-0.3,0-0.5-0.2-0.5-0.5v-2.9c0-0.3,0.2-0.5,0.5-0.5h4.8c0.3,0,0.5-0.2,0.5-0.5v-6.5c0-0.3-0.2-0.5-0.5-0.5h-6.3
		c-1.4,0-2.6,1.2-2.6,2.6V54c0,0.8,0.6,1.4,1.4,1.4h4.8c0.3,0,0.5,0.2,0.5,0.5v2.5c0,0.3-0.2,0.5-0.5,0.5h-5.8
		C904,59,903.7,59.3,903.7,59.5z"/>
	<path class="st3" d="M918.7,103h-3.5c-0.5,0-0.9,0.4-0.9,0.9v9.8c0,0.5,0.4,0.9,0.9,0.9h3.5c0.5,0,0.9-0.4,0.9-0.9v-9.8
		C919.6,103.4,919.2,103,918.7,103z M917.8,110.2c0,0.3-0.2,0.5-0.5,0.5h-1.1c-0.3,0-0.5-0.2-0.5-0.5v-3.9c0-0.3,0.2-0.5,0.5-0.5
		h1.1c0.3,0,0.5,0.2,0.5,0.5V110.2z"/>
	<path class="st3" d="M925.6,103h-3.5c-0.5,0-0.9,0.4-0.9,0.9v9.8c0,0.5,0.4,0.9,0.9,0.9h3.5c0.5,0,0.9-0.4,0.9-0.9v-9.8
		C926.5,103.4,926.1,103,925.6,103z M924.8,110.2c0,0.2-0.1,0.3-0.3,0.3h-1.4c-0.2,0-0.3-0.1-0.3-0.3V106c0-0.2,0.1-0.3,0.3-0.3h1.4
		c0.2,0,0.3,0.1,0.3,0.3V110.2z"/>
	<path class="st3" d="M932.6,103H929c-0.5,0-0.9,0.4-0.9,0.9v10.4c0,0.1,0.1,0.2,0.2,0.2h1.2c0.1,0,0.3-0.1,0.3-0.3v-3.1
		c0-0.2,0.2-0.4,0.4-0.4h2c0.7,0,1.4-0.6,1.4-1.3v-5.7C933.5,103.4,933.1,103,932.6,103z M931.7,108.3c0,0.2-0.1,0.3-0.3,0.3H930
		c-0.2,0-0.3-0.1-0.3-0.3V106c0-0.2,0.1-0.3,0.3-0.3h1.4c0.2,0,0.3,0.1,0.3,0.3V108.3z"/>
	<path class="st3" d="M936.1,114.9h-0.6c-0.4,0-0.7-0.3-0.7-0.7v-2.8c0-0.4,0.3-0.7,0.7-0.7h0.6c0.4,0,0.7,0.3,0.7,0.7v2.8
		C936.8,114.5,936.5,114.9,936.1,114.9z"/>
	<path class="st3" d="M936.1,66.5h-0.6c-0.4,0-0.7-0.3-0.7-0.7v-2.3c0-0.4,0.3-0.7,0.7-0.7h0.6c0.4,0,0.7,0.3,0.7,0.7v2.3
		C936.8,66.2,936.5,66.5,936.1,66.5z"/>
	<path class="st3" d="M922.1,55.2h-5.5c-0.2,0-0.4,0.2-0.4,0.4v1.8c0,0.2,0.2,0.4,0.4,0.4h3.7c0.3,0,0.5,0.2,0.5,0.5v0.5
		c0,0.3-0.2,0.5-0.5,0.5h-3.4c-0.4,0-0.6,0.3-0.6,0.6v5.8c0,0.3,0.2,0.5,0.5,0.5h5.7c0.3,0,0.5-0.2,0.5-0.5v-10
		C922.8,55.5,922.5,55.2,922.1,55.2z M920.4,63.6c0,0.3-0.2,0.5-0.5,0.5h-1c-0.3,0-0.5-0.2-0.5-0.5l0.2-1.7c0-0.3,0.2-0.5,0.5-0.5h1
		c0.3,0,0.5,0.2,0.5,0.5L920.4,63.6z"/>
	<path class="st3" d="M929.7,51.8v3.6c0,0.2-0.1,0.3-0.3,0.3h-3.5c-0.5,0-0.9,0.4-0.9,0.9v9.2c0,0.3,0.2,0.5,0.5,0.5h6.5
		c0.3,0,0.5-0.2,0.5-0.5v-14c0-0.1-0.1-0.3-0.3-0.3H930C929.9,51.6,929.7,51.7,929.7,51.8z M929.8,63.5h-1.6c-0.3,0-0.5-0.2-0.5-0.5
		v-4.1c0-0.3,0.2-0.5,0.5-0.5h1.6c0.3,0,0.5,0.2,0.5,0.5v4.1C930.3,63.2,930.1,63.5,929.8,63.5z"/>
	<path class="st3" d="M903.1,79.2l0.4,1.6c0.1,0.3,0.4,0.5,0.7,0.4l30.8-8.5c0.3-0.1,0.5-0.4,0.4-0.7l-0.5-1.7
		c-0.1-0.3-0.4-0.4-0.7-0.4l-30.7,8.6C903.2,78.6,903.1,78.9,903.1,79.2z"/>
</g>
</svg>
