<?xml version="1.0" encoding="utf-8"?>
<!-- Generator: Adobe Illustrator 27.7.0, SVG Export Plug-In . SVG Version: 6.00 Build 0)  -->
<svg version="1.1" id="Capa_1" xmlns="http://www.w3.org/2000/svg" xmlns:xlink="http://www.w3.org/1999/xlink" x="0px" y="0px"
	 viewBox="0 0 20.1 20.1" style="enable-background:new 0 0 20.1 20.1;" xml:space="preserve">
<style type="text/css">
	.st0{fill:#1856A4;}
</style>
<g>
	<g>
		<g>
			<g>
				<g>
					<rect x="16.1" y="16.1" class="st0" width="1" height="2"/>
				</g>
				<g>
					<rect x="17.1" y="16.1" class="st0" width="1" height="2"/>
				</g>
			</g>
			<g>
				<g>
					<rect x="14.1" y="14.1" class="st0" width="1" height="2"/>
				</g>
				<g>
					<rect x="15.1" y="14.1" class="st0" width="1" height="2"/>
				</g>
			</g>
			<g>
				<g>
					<rect x="12.1" y="12.1" class="st0" width="1" height="2"/>
				</g>
				<g>
					<rect x="13.1" y="12.1" class="st0" width="1" height="2"/>
				</g>
			</g>
			<g>
				<g>
					<rect x="10.1" y="10.1" class="st0" width="1" height="2"/>
				</g>
				<g>
					<rect x="11.1" y="10.1" class="st0" width="1" height="2"/>
				</g>
			</g>
			<g>
				<g>
					<rect x="8.1" y="8.1" class="st0" width="1" height="2"/>
				</g>
				<g>
					<rect x="9.1" y="8.1" class="st0" width="1" height="2"/>
				</g>
			</g>
			<g>
				<g>
					<rect x="6.1" y="6.1" class="st0" width="1" height="2"/>
				</g>
				<g>
					<rect x="7.1" y="6.1" class="st0" width="1" height="2"/>
				</g>
			</g>
			<g>
				<g>
					<rect x="4.1" y="4.1" class="st0" width="1" height="2"/>
				</g>
				<g>
					<rect x="5.1" y="4.1" class="st0" width="1" height="2"/>
				</g>
			</g>
			<g>
				<g>
					<rect x="2.1" y="2" class="st0" width="1" height="2"/>
				</g>
				<g>
					<rect x="3.1" y="2" class="st0" width="1" height="2"/>
				</g>
			</g>
		</g>
	</g>
	<g>
		<g>
			<g>
				<g>
					<rect x="3" y="16.1" class="st0" width="1" height="2"/>
				</g>
				<g>
					<rect x="2.1" y="16.1" class="st0" width="1" height="2"/>
				</g>
			</g>
			<g>
				<g>
					<rect x="5.1" y="14.1" class="st0" width="1" height="2"/>
				</g>
				<g>
					<rect x="4.1" y="14.1" class="st0" width="1" height="2"/>
				</g>
			</g>
			<g>
				<g>
					<rect x="7.1" y="12.1" class="st0" width="1" height="2"/>
				</g>
				<g>
					<rect x="6.1" y="12.1" class="st0" width="1" height="2"/>
				</g>
			</g>
			<g>
				<g>
					<rect x="9.1" y="10.1" class="st0" width="1" height="2"/>
				</g>
				<g>
					<rect x="8.1" y="10.1" class="st0" width="1" height="2"/>
				</g>
			</g>
			<g>
				<g>
					<rect x="11.1" y="8.1" class="st0" width="1" height="2"/>
				</g>
				<g>
					<rect x="10.1" y="8.1" class="st0" width="1" height="2"/>
				</g>
			</g>
			<g>
				<g>
					<rect x="13.1" y="6.1" class="st0" width="1" height="2"/>
				</g>
				<g>
					<rect x="12.1" y="6.1" class="st0" width="1" height="2"/>
				</g>
			</g>
			<g>
				<g>
					<rect x="15.1" y="4.1" class="st0" width="1" height="2"/>
				</g>
				<g>
					<rect x="14.1" y="4.1" class="st0" width="1" height="2"/>
				</g>
			</g>
			<g>
				<g>
					<rect x="17.1" y="2" class="st0" width="1" height="2"/>
				</g>
				<g>
					<rect x="16.1" y="2" class="st0" width="1" height="2"/>
				</g>
			</g>
		</g>
	</g>
</g>
</svg>
