<?xml version="1.0" encoding="utf-8"?>
<!-- Generator: Adobe Illustrator 27.7.0, SVG Export Plug-In . SVG Version: 6.00 Build 0)  -->
<svg version="1.1" id="Capa_1" xmlns="http://www.w3.org/2000/svg" xmlns:xlink="http://www.w3.org/1999/xlink" x="0px" y="0px"
	 viewBox="0 0 60 52" style="enable-background:new 0 0 60 52;" xml:space="preserve">
<style type="text/css">
	.st0{fill:#1856A4;}
	.st1{fill:#0A0D1C;}
	.st2{fill:#F18519;}
</style>
<polygon class="st0" points="42.1,6.7 42.1,14.7 41.1,14.7 41.1,16.7 33.1,16.7 33.1,20.7 39.1,20.7 39.1,32.7 38.1,32.7 38.1,34.7 
	32.1,34.7 32.1,48.7 31.1,48.7 31.1,50.7 22.1,50.7 22.1,48.7 21.1,48.7 21.1,34.7 16.1,34.7 16.1,32.7 15.1,32.7 15.1,22.7 
	21.1,22.7 21.1,10.7 22.1,10.7 22.1,8.7 24.1,8.7 24.1,6.7 26.1,6.7 26.1,4.7 28.1,4.7 28.1,2.7 38.1,2.7 38.1,4.7 41.1,4.7 
	41.1,6.7 "/>
<rect x="38.1" y="22.7" class="st1" width="1" height="10"/>
<rect x="22.1" y="48.7" class="st1" width="1" height="2"/>
<rect x="31.1" y="34.7" class="st1" width="1" height="14"/>
<rect x="37.1" y="32.7" class="st1" width="1" height="2"/>
<rect x="23.1" y="48.7" class="st1" width="8" height="2"/>
<rect x="32.1" y="32.7" class="st1" width="5.5" height="2"/>
<rect x="33.1" y="20.7" class="st1" width="6" height="2"/>
<rect x="41.1" y="8.7" class="st1" width="1" height="2"/>
<rect x="41.1" y="12.7" class="st1" width="1" height="2"/>
<rect x="32.1" y="14.7" class="st1" width="9" height="2"/>
<g>
	<rect x="16.1" y="22.7" class="st2" width="1" height="10"/>
	<rect x="17.1" y="22.7" class="st2" width="6" height="2"/>
	<rect x="22.1" y="20.7" class="st2" width="1" height="2"/>
	<rect x="17.1" y="32.7" class="st2" width="5.5" height="2"/>
	<rect x="22.1" y="32.7" class="st2" width="1" height="16"/>
	<rect x="22.1" y="10.7" class="st2" width="1" height="10.6"/>
	<rect x="23.1" y="8.7" class="st2" width="1" height="2"/>
	<rect x="24.1" y="8.7" class="st2" width="1" height="2"/>
	<rect x="25.1" y="6.7" class="st2" width="1" height="2"/>
	<rect x="26.1" y="6.7" class="st2" width="1" height="2"/>
	<rect x="27.1" y="4.7" class="st2" width="1" height="2"/>
</g>
<rect x="27.1" y="4.7" class="st1" width="1" height="2"/>
<rect x="38.1" y="4.7" class="st1" width="1" height="2"/>
<rect x="39.1" y="4.7" class="st1" width="1" height="2"/>
<rect x="40.1" y="4.7" class="st1" width="1" height="2"/>
<rect x="41.1" y="6.7" class="st1" width="1" height="2"/>
<rect x="41.1" y="10.7" class="st1" width="1" height="2"/>
<rect x="28.1" y="2.7" class="st1" width="10" height="2"/>
<rect x="32.1" y="16.5" class="st1" width="1" height="6.2"/>
<g>
	<rect x="15.1" y="22.7" class="st1" width="1" height="10"/>
	<rect x="16.1" y="22.7" class="st1" width="6" height="2"/>
	<rect x="21.1" y="20.7" class="st1" width="1" height="2"/>
	<rect x="16.1" y="32.7" class="st1" width="5.5" height="2"/>
	<rect x="21.1" y="32.7" class="st1" width="1" height="16"/>
	<rect x="21.1" y="10.7" class="st1" width="1" height="10.6"/>
	<rect x="22.1" y="8.7" class="st1" width="1" height="2"/>
	<rect x="23.1" y="8.7" class="st1" width="1" height="2"/>
	<rect x="24.1" y="6.7" class="st1" width="1" height="2"/>
	<rect x="25.1" y="6.7" class="st1" width="1" height="2"/>
	<rect x="26.1" y="4.7" class="st1" width="1" height="2"/>
</g>
</svg>
