<?xml version="1.0" encoding="utf-8"?>
<!-- Generator: Adobe Illustrator 27.7.0, SVG Export Plug-In . SVG Version: 6.00 Build 0)  -->
<svg version="1.1" id="Capa_1" xmlns="http://www.w3.org/2000/svg" xmlns:xlink="http://www.w3.org/1999/xlink" x="0px" y="0px"
	 viewBox="0 0 60 52" style="enable-background:new 0 0 60 52;" xml:space="preserve">
<style type="text/css">
	.st0{fill:#F18519;}
	.st1{fill:#FEFEFE;}
</style>
<g>
	<g>
		<path class="st0" d="M52.2,5.6v0.1c0,2,0,2,1.9,2.3c0,0.5,0,1,0,1.4c-0.4,0.4-0.9,0.2-1.3,0.2c-1.8,0-3.7,0-5.5,0
			c-0.7,0-1,0.2-0.9,1c0.1,0.8-0.1,1.3-1,1.2c-0.8-0.1-1,0.1-0.9,1c0.1,1.8,0,3.6,0.1,5.4c0,0.6-0.6,1.3,0,1.9c-1.7,0-1.9-0.4-1.9-2
			c0-1.8,0-3.5,0-5.3c0-0.7-0.2-1-0.8-0.8c-1,0-2,0-3,0c-1.1,0-2.1-0.1-3.3-0.1c-0.4,0-0.7,0.1-0.7,0.6c0,1,0,1.7,1.2,1.6
			c0.9-0.1,1.8-0.1,2.7-0.1c0,1,0,1.9,0,3c0,0.8,0.1,1.3,1,1.2c0.8-0.1,0.9,0.4,0.9,1.1c0,1.6,0,3.1,0,4.7c0,0.4,0,1.1,0.3,1.1
			c0.8-0.1,0.7,0.6,1.1,1c-1.1-0.1-1.9,0.6-2.9,0.5c-0.6-0.1-0.4,0.5-0.4,0.8c0,1.3,0,2.6,0,4c0,0.7-0.1,1.3,0.9,1.3
			c1,0,1-0.5,1-1.3c0-0.6,0-1.1,0-1.7c-0.1-1,0.2-1.2,1.1-1.2c2.8,0,2.7,0,2.7,2.9c0,0.8-0.1,1.4-1.1,1.3c-0.9-0.1-0.8,0.5-0.9,1.1
			c0,0.7,0.3,1,0.9,1c0.7,0,1.5,0,2.1,0c0.9,0,0.9,0.7,0.8,1.2c-0.2,1,0.9,2.5-0.7,2.9c-0.9,0.2-1.3,0.4-1.2,1.3
			c0,0.4-0.2,0.7-0.2,1.1c-1.8,0.1-3.6,0.4-5.4,0.2c-0.2-0.7-0.7-0.6-1.2-0.6c-5.6,0-11.2,0-17,0c-0.6,0-1.1,0.1-1.6,0.5
			c-1.8-0.4-3.7-0.1-5.5-0.2c0-0.6-0.1-1.1-0.1-1.7c0-0.5-0.2-0.7-0.7-0.7c-1.2,0.6-1.3-0.2-1.2-1.3c0-0.6,0-1.1,0-1.7
			c0-0.7,0.2-1.1,0.9-0.7c0.9,0.4,1-0.1,1-1c0-1.4,0-2.9,0-4.2c0-0.8,0.1-1.1,1-1.2c2.8,0,2.8-0.1,2.9,3c0,0.1,0,0.1,0,0.2
			c-0.1,0.7,0.2,1,0.9,1c0.7,0,1-0.1,1-1c0-1.7,0-3.5,0-5.2c0.4,0,0.9,0,1.3,0c0.3,0,0.8,0,0.7-0.5c-0.2-1.7,0.8-1.7,1.8-1.6
			c0,1.4,0.1,2.8,0.1,4.2c0,0.5,0,0.8,0,1.3c0,0.6,0.2,0.8,0.7,0.7c0.8-0.1,1,0.4,1,1c0.1,1,0.6,1.2,1.3,1.1c1.8-0.1,3.7,0,5.5,0
			c0.6,0,1-0.1,1-0.8c0-0.6,0.2-1,0.9-1c0.8,0.1,1.6-0.4,2.4-0.2c0.6,0.1,0.6-0.4,0.6-0.8c0-1.3,0-2.6,0-4c0-1.7,0-1.7-1.7-1.6
			c-0.1-0.1-0.2-0.4-0.2-0.5c0.1-1-0.2-1.6-1.2-1.3c-0.9,0.1-0.8-0.6-0.7-1.1c0.1-0.8-0.2-1.1-0.9-1c-1.7,0-3.4,0-5.1,0
			c-1,0-2-0.2-1.8,1.6c0.1,0.7-0.6,0.7-1.1,0.8c-0.4,0-0.8,0-0.7-0.6c0.3-1.8-0.7-1.8-1.9-1.7c-0.6,0-1.1,0-1.7,0
			c-0.3,0-0.7,0.1-0.6,0.6c0.2,1.6-0.7,1.6-1.7,1.4c0-2.8,0-5.4,0-8.2c0-2.2,0-2.2-1.9-2.2c0-2,0-2,1.9-2c0.3,0,0.7,0,1,0
			c0.8,0.1,1.1-0.2,1-1.1c-0.1-0.8,0.2-1.1,1-1c0.7,0,1.5,0,2.1,0c0.9,0,0.7-0.6,0.8-1.1c0-0.6,0-1-0.7-1c-2.8,0-5.7,0-8.5,0
			c-0.3,0-0.8,0-0.7,0.5c0.3,1.8-0.9,1.6-1.9,1.6c-1.8,0-1.8,0-1.8,2c-1.9,0-3.9,0-5.8,0c0-0.7,0-1.3,0-2c1.9,0.7,1.9-0.8,2.1-2
			c0.6,0,1.1,0,1.7-0.1c1.1,0.4,2.4,0,3.5,0c0.6,0,0.3-0.6,0.3-1c-0.1-0.8,0.1-1.1,1-1.1c11,0,22-0.1,32.9,0c0.8,0,1,0.2,0.9,1.1
			c-0.1,0.7,0.1,1,0.9,1.2C48.3,6,51.6,5.6,52.2,5.6z M23.1,13.9c0,1.1,0.1,2,0,3.1c0,0.7,0.1,1.1,0.9,1.1c2.7,0,5.4,0,8.1,0
			c0.7,0,0.9-0.2,0.9-1c-0.1-1.4-0.2-2.8-0.2-4.2c0-0.7-0.1-1-0.9-1c-0.7,0-1.2,0-1.1,1s-0.3,1.1-1,1.1c-1.1,0-2.2,0-3.4,0
			c-0.9,0-1.5-0.2-1.3-1.3c0-0.7-0.3-0.8-0.8-0.7c-0.3,0-0.7,0-1.1,0c-1.1,0-2.1-0.1-3.3-0.1c-0.4,0-0.7,0.1-0.7,0.6
			c0,1,0,1.7,1.2,1.6C21.3,13.9,22.2,14.1,23.1,13.9z M29,34.8c-2.8,0-5.7,0-8.5,0c-0.8,0-1.1,0.1-1,1.1c0,0.8,0.2,1,1,1
			c5.7,0,11.6,0,17.3,0c0.8,0,1-0.2,1-1.1c0-0.8-0.3-1-1-1C34.7,34.8,31.8,34.8,29,34.8z M30.1,5.8c-0.6,0-1.1-0.1-1.1,0.8
			c0,0.7,0.3,1.1,0.9,1.1c1,0.1,0.9-0.8,1-1.4C31,5.8,30.6,5.8,30.1,5.8z M26.4,5.8c-0.9,0-1.3,0-1.3,1c0,0.6,0.2,1.1,0.8,1.1
			c0.8,0,1-0.6,1.1-1.3C27.1,5.6,26.5,5.8,26.4,5.8z"/>
		<path d="M19.2,26.6c0,1.7,0,3.5,0,5.2c0,0.8-0.3,1-1,1s-1-0.2-0.9-1c0-0.1,0-0.1,0-0.2c0-3,0-3-2.9-3c-0.8,0-1,0.4-1,1.2
			c0,1.4,0,2.9,0,4.2c0,0.8-0.1,1.3-1,1c-0.7-0.2-1,0-0.9,0.7c0,0.6,0,1.1,0,1.7c-0.1,1,0,1.8,1.3,1.6c0.4-0.1,0.7,0.2,0.7,0.7
			c0,0.6,0,1.1,0.1,1.7c0,1.6,0,1.7,1.5,1.6c0.9,0,1.7-0.2,2.5-0.1c1.2,0.4,1.6-0.1,1.5-1.3c0.4-0.4,1-0.5,1.6-0.5
			c5.6,0,11.2,0,17,0c0.4,0,1-0.1,1.2,0.6c0,0.6-0.2,1.6,0.7,1.4c1.3-0.2,2.6-0.1,3.9-0.1c1.2,0,1.3-0.1,0.9-1.4
			c0.1-0.4,0.3-0.7,0.2-1.1c-0.1-1.1,0.3-1.1,1.2-1.3c1.6-0.4,0.4-1.9,0.7-2.9c0.1-0.5,0.2-1.2-0.8-1.2c-0.7,0-1.5,0-2.1,0
			c-0.7,0-1-0.1-0.9-1c0-0.6,0-1.3,0.9-1.1c1,0.1,1.1-0.4,1.1-1.3c0-2.9,0-2.9-2.7-2.9c-0.9,0-1.2,0.2-1.1,1.2c0.1,0.6,0,1.1,0,1.7
			c0,0.7,0,1.3-1,1.3s-0.9-0.6-0.9-1.3c0-1.3,0-2.6,0-4c0-0.4-0.1-0.8,0.4-0.8c1,0.1,1.7-0.7,2.9-0.5c-0.4-0.4-0.3-1.1-1.1-1
			c-0.4,0-0.3-0.6-0.3-1.1c0-1.6,0-3.1,0-4.7c0-0.7-0.1-1.2-0.9-1.1c-0.9,0.1-1.1-0.4-1-1.2c0-1,0-1.9,0-3c0-0.6,0-1.3,0-1.9
			c1,0,2,0,3,0c0.7,0,0.8,0.2,0.8,0.8c0,1.8,0,3.5,0,5.3s0.3,2,1.9,2l0,0c0,1,0,1.9,0,2.9c-0.1,1.1,0.3,1.3,1.2,1.3
			c2.8,0,5.6,0,8.4,0l0,0c0,0.7,0,1.3,0,2c-0.7,0-1.2,0-1.9,0.1c-0.7,0-1.2,0-1.9,0c-0.3,0-0.7,0-1.1,0c-0.9,0.1-2.2-0.5-2.6,0.2
			c-0.4,0.8-0.2,2.3-0.2,3.4c0,0.8,0.6,0.6,1,0.5c0.8-0.1,1,0.2,1,1.1c0,1.1,0,2,0,3.1c0,2.8,0,5.5,0,8.3l0,0c-2,0-2,0-1.9,2.2v0.1
			c-0.3,0-0.7,0.1-1,0.1c-2.2-0.2-4.6,0.1-6.9-0.1c0.1-2.3,0.1-2.3-1.9-2.3c-5.2,0-10.2,0-15.4,0c-2.1,0-2.1,0-2,2.3
			c-1,0-1.9,0.1-2.9,0.1c-1.3-0.4-2.7-0.2-4-0.4c-0.3,0-0.9,0.1-0.8-0.5c0.3-2-0.9-1.6-1.9-1.6c0-0.7,0-1.6-0.1-2.3
			c0-1.3,0-2.6,0-3.9c0-0.7,0-1.3,0-2c0-1.1,0.1-2,0-3.1c0-0.8,0.1-1.2,1-1.1c0.7-0.2,0.9-0.6,0.9-1.4c0-3.1,0-3.1-2.8-3.1
			c-0.3,0-0.7,0-1.1,0c-0.7,0-1.5,0-2.1,0c-0.6,0-1.1,0-1.7,0c-0.2-0.1-0.2-0.4-0.2-0.6c0.1-0.5,0.4-1,0.2-1.6c2.8,0,5.6-0.1,8.3,0
			c1.1,0,1.5-0.4,1.3-1.6c-0.1-0.8,0-1.7,0-2.5c0.2,0,0.4-0.1,0.6,0c1.1,0.2,1.3-0.4,1.3-1.4c-0.1-2.3,0-4.6,0-6.9l0,0
			c1.9,0.1,1.9,0.1,1.9,2.2c0,2.8,0,5.4,0,8.2l0,0c-2.4-0.1-1.9-0.1-1.9,1.9v0.1c0,2.2,0,2.2,2,2C18,26.5,18.7,26.5,19.2,26.6z"/>
		<path class="st0" d="M13.5,20.3c0,0.8-0.1,1.7,0,2.5c0.1,1.1-0.2,1.6-1.3,1.6c-2.8-0.1-5.6,0-8.3,0c-0.4,0-0.8,0-1.2,0
			s-0.8-0.1-0.7-0.7c0.2-1.3-0.6-1.4-1.5-1.3c-0.1,0-0.3,0-0.4,0c0-2.8,0-5.5,0-8.3c0-0.7,0-1.3,0.1-2c0.7,0,1.2,0,1.9,0
			c0,2,0,4.1,0,6.1s0,2,1.9,2.2c0,0.1,0.1,0.4,0,0.5c-0.2,1.2,0.2,1.7,1.3,1.6c1.8-0.1,3.6-0.1,5.4,0c0.7,0,1.1-0.1,0.9-1
			c-0.1-1,0.2-1.2,1.1-1.1C12.9,20.3,13.1,20.2,13.5,20.3L13.5,20.3z"/>
		<path class="st1" d="M56.1,11.7c0,0.2,0,0.6,0.2,0.8c0.1,0.5-0.4,0.8,0.1,1.3c-0.3,0.4-0.2,0.8-0.2,1.3c0,1.7,0,3.4,0,5.2
			c-0.3-0.1-0.6,0.4-1,0.1c-0.8-0.5-1,0-0.9,0.8c0,0.2,0,0.6,0,0.8c0,0.1,0,0.1,0,0.2c-1,0.1-1.9,0.5-2.9,0.2
			c-0.9-0.2-1.9-0.2-2.8-0.2c-1.9,0-1.9,0-2-2c1.6,0,3,0,4.6,0c1.3,0,1.7-0.5,1.5-2c1.7-0.1,1.7-0.1,1.7-2v-0.1c0-1.4,0-2.8,0-4.2
			C54.8,11.9,55.5,12.1,56.1,11.7z"/>
		<path d="M56.1,20.2c0-1.7,0-3.4,0-5.2c0-0.5,0-1,0.2-1.3c0.4,0,0.9,0,1.3,0h0.1c0.2,0.7,0.2,1.6,0.2,2.4c0,2,0,4.1,0,6.1
			c-0.7,0-1.2,0-1.9,0C56.1,21.7,56.1,20.9,56.1,20.2z"/>
		<path d="M58.1,22.4c0-2,0-4.1,0-6.1c0-0.8,0.1-1.6-0.2-2.4c2,0.2,2.1,0.4,2.1,2.4c0,1.8-0.3,3.6-0.2,5.4
			C59.8,23.1,58.7,22.3,58.1,22.4z"/>
		<path d="M56.1,24.4c-0.7,0-1.2,0-1.9,0l0,0c0-0.7,0-1.4,0-2c0-0.1,0-0.1,0-0.2c0.6,0.4,1.1,0.2,1.7,0.2
			C56.3,23,56.1,23.7,56.1,24.4z"/>
		<path class="st0" d="M55.8,22.4c-0.6,0-1.1,0.1-1.7-0.2c0-0.2,0-0.6,0-0.8c-0.1-0.7,0.2-1.2,0.9-0.8c0.4,0.2,0.7-0.2,1-0.1
			c0,0.7,0,1.3,0,2C56.1,22.4,56,22.4,55.8,22.4z"/>
		<path class="st0" d="M54.3,10c0.6-0.1,1.1,0.1,1.6,0.2c0.1,0.5,0.2,1,0.2,1.4c-0.6,0.5-1.2,0.2-1.9,0.2
			C54.3,11.3,54.3,10.6,54.3,10z"/>
		<path class="st0" d="M57.8,13.8c-0.4,0-0.9,0-1.3,0c-0.6-0.4,0-0.8-0.1-1.3c0.2-1,0.8-0.5,1.3-0.5c0,0,0.1,0,0.1,0.1
			C58,12.6,57.9,13.2,57.8,13.8z"/>
		<path class="st1" d="M3.6,10.1c0.1,0,0.1-0.1,0.2-0.2c1.9,0,3.9,0,5.8,0c1.9,0.2,1.9,0.2,2,2.2c0,1.4,0,2.8,0,4.2
			c-2.2,0-4.6,0-6.9,0c-1,0-0.8,0.6-0.9,1.3c-0.1,0.7,0.3,0.8,0.9,0.8c1.7,0,3.5,0,5.2,0c0,1.8-0.2,2-1.8,2c-1.5,0-2.8,0-4.3,0
			C2,20.3,2,20.3,2,18.3s0-4.1,0-6.1l0,0C3.5,11.9,3.5,11.9,3.6,10.1z"/>
		<path class="st1" d="M54.3,10c0,0.7,0,1.3,0,2c0,1.4,0,2.8,0,4.2c-2.2,0-4.6,0-6.9,0c-1,0-0.8,0.7-0.9,1.3
			c-0.1,0.8,0.3,0.7,0.9,0.7c1.7,0,3.5,0,5.2,0c0.2,1.4-0.2,2-1.5,2c-1.6,0-3,0-4.6,0c-0.7,0-1.2,0-1.9,0l0,0c-0.6-0.6,0-1.3,0-1.9
			c-0.1-1.8,0-3.6-0.1-5.4c0-0.8,0.2-1.1,0.9-1c0.9,0.1,1.1-0.2,1-1.2c-0.1-0.7,0.2-1,0.9-1c1.8,0,3.7,0,5.5,0c0.4,0,1,0.1,1.3-0.2
			C54.2,9.7,54.2,9.9,54.3,10z"/>
		<path class="st1" d="M19.2,26.6c-0.7,0-1.2,0-1.9-0.1c0-1.3,0-2.8,0-4.1l0,0c1,0.1,1.9,0.1,1.7-1.4c-0.1-0.5,0.2-0.6,0.6-0.6
			c0.6,0,1.1,0,1.7,0c1.2-0.1,2.2,0,1.9,1.7c-0.1,0.6,0.2,0.6,0.7,0.6c0.6,0,1.2-0.1,1.1-0.8c-0.2-1.8,0.8-1.6,1.8-1.6
			c1.7,0,3.4,0,5.1,0c0.8,0,1,0.2,0.9,1c0,0.5-0.1,1.2,0.7,1.1c1-0.2,1.3,0.4,1.2,1.3c0,0.1,0.1,0.4,0.2,0.5
			c-0.4,0.7-0.2,1.6-0.2,2.4c0,2,0,2-1.9,2c0-0.8-0.1-1.8,0-2.6c0.1-1.3-0.3-1.7-1.5-1.4c-0.1,0-0.3,0-0.4,0c0.1-2,0.1-2-1.9-2
			c-0.1,0-0.1,0-0.2,0c-1.7,0-1.8,0.1-2.1,1.8c-0.3,0.1-0.6,0.1-0.9,0.2c-0.9,0.1-1.7-0.2-2.6,0c-1,0-2.1-0.1-1.8,1.6
			c0.1,0.5-0.3,0.5-0.7,0.5C20.1,26.5,19.7,26.5,19.2,26.6z"/>
		<path d="M23.1,12c0.3,0,0.7,0,1.1,0c0.6,0,0.9,0.1,0.8,0.7c0,1.1,0.6,1.3,1.3,1.3c1.1,0,2.2,0,3.4,0c0.8,0,1.2-0.1,1-1.1
			c-0.1-1,0.3-1,1.1-1c0.7,0,0.9,0.2,0.9,1c0,1.4,0.1,2.8,0.2,4.2c0,0.7-0.2,1-0.9,1c-2.7,0-5.4,0-8.1,0c-0.8,0-1-0.4-0.9-1.1
			c0-1.1,0-2,0-3.1C23.1,13.3,23.1,12.6,23.1,12z"/>
		<path class="st1" d="M11.6,11.9c-0.1-1.9-0.1-1.9-2-2.2c-0.1-1.9-0.1-1.9,1.8-2c1,0,2.1,0.2,1.9-1.6c-0.1-0.5,0.3-0.5,0.7-0.5
			c2.8,0,5.7,0,8.5,0c0.8,0,0.7,0.5,0.7,1c0,0.6,0.1,1.2-0.8,1.1c-0.7,0-1.5,0-2.1,0c-0.8,0-1.1,0.2-1,1c0.1,0.8-0.2,1.2-1,1.1
			c-0.3,0-0.7,0-1,0c-1.9,0-1.9,0-1.9,2l0,0c-0.7,0-1.2,0-1.9,0C12.9,12,12.2,11.9,11.6,11.9z"/>
		<path d="M29,34.8c2.9,0,5.8,0,8.7,0c0.7,0,1,0.1,1,1c0,0.8-0.2,1.1-1,1.1c-5.7,0-11.6,0-17.3,0c-0.7,0-1-0.2-1-1
			c0-0.8,0.3-1.1,1-1.1C23.3,34.8,26.1,34.8,29,34.8z"/>
		<path d="M32.8,28.5c1.9,0,1.9,0,1.9-2c0-0.8-0.2-1.6,0.2-2.4c1.7-0.1,1.7-0.1,1.7,1.6c0,1.3,0,2.6,0,4c0,0.5,0,1-0.6,0.8
			c-0.8-0.1-1.6,0.4-2.4,0.2c-0.6-0.1-0.9,0.2-0.9,1c0,0.8-0.3,1-1,0.8c-1.8,0-3.7-0.1-5.5,0c-0.8,0-1.2-0.2-1.3-1.1
			c-0.1-0.7-0.3-1.1-1-1c-0.6,0.1-0.8-0.2-0.7-0.7c0-0.5,0-0.8,0-1.3c1.1-0.1,2.2-0.4,1.9,1.6c-0.1,0.6,0.4,0.5,0.8,0.5c2,0,4,0,6,0
			c0.6,0.1,0.9,0,1-0.6C32.9,29.5,32.9,29,32.8,28.5L32.8,28.5z"/>
		<path d="M31.9,30.6c-2,0-4,0-6,0c-0.3,0-0.9,0.1-0.8-0.5c0.3-1.9-0.9-1.7-1.9-1.6c0-1.4-0.1-2.8-0.1-4.2c0.9-0.2,1.7,0.1,2.6,0
			c-0.3,1.1-0.4,2.2,0,3.4c-0.1,1.2,0.7,0.7,1.2,0.8c0.8,0.1,1.6,0,2.5,0.2c0.4,0.1,1.1,0.4,1.7-0.2c0.2,0.2,0.6,0.2,0.9,0.2
			C31.9,29.5,31.9,30,31.9,30.6z"/>
		<path class="st1" d="M19.1,41.5c0.1,1.2-0.2,1.7-1.5,1.3c-0.8-0.2-1.7,0-2.5,0.1c-1.5,0-1.6,0-1.5-1.6
			C15.4,41.4,17.2,41.2,19.1,41.5z"/>
		<path class="st1" d="M44.2,41.3c0.4,1.3,0.4,1.4-0.9,1.4s-2.6-0.1-3.9,0.1c-0.9,0.2-0.7-0.8-0.7-1.4
			C40.6,41.6,42.4,41.5,44.2,41.3z"/>
		<path d="M38.7,12c0,0.6,0,1.3,0,1.9c-0.9,0-1.8,0-2.7,0.1c-1.2,0.2-1.2-0.5-1.2-1.6c0-0.5,0.2-0.7,0.7-0.6
			C36.5,11.9,37.6,12,38.7,12z"/>
		<path class="st1" d="M23.1,12c0,0.6,0,1.3,0,1.9c-0.9,0-1.8,0-2.7,0.1c-1.2,0.2-1.2-0.5-1.2-1.6c0-0.5,0.2-0.7,0.7-0.6
			C21,11.9,22.1,12,23.1,12z"/>
		<path class="st1" d="M30.1,5.8c0.4,0,0.9,0,0.8,0.6c-0.1,0.6,0,1.6-1,1.4C29.3,7.7,29,7.3,29,6.7C29,5.6,29.6,5.8,30.1,5.8z"/>
		<path class="st1" d="M26.4,5.8c0.2,0,0.8-0.1,0.7,0.6S26.7,7.7,26,7.7c-0.6,0-0.8-0.5-0.8-1.1C25.1,5.9,25.5,5.8,26.4,5.8z"/>
		<path class="st0" d="M44.5,20.2c0.7,0,1.2,0,1.9,0c0.1,2,0.1,2,2,2c0.9,0,1.9,0,2.8,0.2c1,0.2,1.9-0.1,2.9-0.2c0,0.7,0,1.4,0,2
			c-2.8,0-5.6,0-8.4,0c-0.9,0-1.3-0.4-1.2-1.3C44.5,22.1,44.5,21.2,44.5,20.2z"/>
		<path class="st0" d="M13.5,12c0.7,0,1.2,0,1.9,0c0,2.3,0,4.6,0,6.9c0,1.1-0.2,1.7-1.3,1.4c-0.2,0-0.4,0-0.6,0l-0.1-0.1
			C13.5,17.4,13.5,14.8,13.5,12z"/>
		<path class="st0" d="M17.3,22.4c0,1.3,0,2.8,0,4.1c-2,0.1-2,0.1-2-2v-0.1C15.5,22.3,14.9,22.3,17.3,22.4z"/>
		<path class="st1" d="M13.5,12c0,2.8,0,5.5,0,8.2c-0.2,0-0.6,0.1-0.8,0c-0.8-0.1-1.2,0.2-1.1,1.1c0.1,0.8-0.2,1-0.9,1
			c-1.8,0-3.6-0.1-5.4,0c-1.2,0.1-1.6-0.4-1.3-1.6c0-0.1,0-0.4,0-0.5c1.5,0,2.8,0,4.3,0c1.7,0,1.8-0.2,1.8-2
			c1.7-0.1,1.7-0.1,1.7-1.9v-0.1c0-1.4,0-2.8,0-4.2C12.2,11.9,12.9,12,13.5,12z"/>
		<path class="st0" d="M3.6,10.1c-0.1,1.8-0.1,1.8-1.7,1.8c0-0.2,0-0.5,0-0.7C1.9,9.6,2.1,9.5,3.6,10.1z"/>
		<path d="M52.5,18.3c-1.7,0-3.5,0-5.2,0c-0.6,0-0.9,0-0.9-0.7c0.1-0.6-0.1-1.3,0.9-1.3c2.2,0,4.6,0,6.9,0v0.1
			C54.2,18.2,54.2,18.2,52.5,18.3z"/>
		<path d="M11.6,16.1v0.1c0,1.8,0,1.8-1.7,1.9c-1.7,0-3.5,0-5.2,0c-0.6,0-0.9,0-0.9-0.8C3.9,16.7,3.7,16,4.7,16
			C7,16.1,9.2,16.1,11.6,16.1z"/>
		<path class="st1" d="M26.5,24.2c0.3-1.8,0.4-1.8,2.1-1.8c0.1,0,0.1,0,0.2,0c2,0,2,0,2.1,2c0,0.7,0,1.3-0.1,2c-1.3,0-2.7,0-4,0
			C26.7,25.8,26.6,24.9,26.5,24.2z"/>
		<path class="st0" d="M26.5,24.2c0.1,0.7,0.2,1.6,0.2,2.3c-0.1,0.1-0.2,0.1-0.2,0.2c-0.7-0.1-0.6,0.7-0.9,1c-0.4-1.1-0.3-2.2,0-3.4
			C26,24.3,26.3,24.3,26.5,24.2z"/>
		<path d="M31.9,28.9c0.3-0.2,0.7-0.4,1-0.4c0,0.5,0,1,0,1.3c0,0.7-0.4,0.7-1,0.6C31.9,30,31.9,29.5,31.9,28.9z"/>
		<path d="M26.5,26.7c0.1-0.1,0.2-0.1,0.2-0.2c1.3,0,2.7,0,4,0c0,0.7,0,1.4,0.1,2c-0.6,0.5-1.2,0.4-1.7,0.2
			c-0.8-0.2-1.7-0.1-2.5-0.2C26.5,27.9,26.5,27.3,26.5,26.7z"/>
		<path class="st0" d="M26.5,26.7c0,0.6,0,1.2,0.3,1.8c-0.6-0.1-1.3,0.4-1.2-0.8C26,27.4,25.8,26.7,26.5,26.7z"/>
	</g>
</g>
</svg>
