<?xml version="1.0" encoding="utf-8"?>
<!-- Generator: Adobe Illustrator 27.7.0, SVG Export Plug-In . SVG Version: 6.00 Build 0)  -->
<svg version="1.1" id="Capa_1" xmlns="http://www.w3.org/2000/svg" xmlns:xlink="http://www.w3.org/1999/xlink" x="0px" y="0px"
	 viewBox="0 0 60 52" style="enable-background:new 0 0 60 52;" xml:space="preserve">
<style type="text/css">
	.st0{fill:#F18519;}
	.st1{fill:#0A0D1C;}
	.st2{fill:#1856A4;}
</style>
<polygon class="st0" points="50.2,13.4 50.2,37.4 48.2,37.4 48.2,41.4 46.2,41.4 46.2,43.4 42.2,43.4 42.2,45.4 19.2,45.4 
	19.2,43.4 15.2,43.4 15.2,41.4 13.2,41.4 13.2,37.4 11.2,37.4 11.2,13.4 13.2,13.4 13.2,9.4 15.2,9.4 15.2,7.4 19.2,7.4 19.2,5.4 
	42.2,5.4 42.2,7.4 46.2,7.4 46.2,9.4 48.2,9.4 48.2,13.4 "/>
<polygon class="st0" points="39.2,21.4 40.2,21.4 40.2,29.4 39.2,29.4 39.2,31.4 37.2,31.4 37.2,33.4 35.2,33.4 35.2,35.4 
	26.2,35.4 26.2,33.4 24.2,33.4 24.2,31.4 22.2,31.4 22.2,29.4 21.2,29.4 21.2,21.4 22.2,21.4 22.2,19.4 24.2,19.4 24.2,17.4 
	26.2,17.4 26.2,15.4 35.2,15.4 35.2,17.4 37.2,17.4 37.2,19.4 39.2,19.4 "/>
<g>
	<rect x="19.2" y="5.4" class="st1" width="11.5" height="2"/>
	<rect x="18.2" y="7.4" class="st1" width="1" height="2"/>
	<rect x="15.2" y="7.4" class="st1" width="3" height="2"/>
	<rect x="13.2" y="9.4" class="st1" width="1" height="2"/>
	<rect x="13.2" y="11.4" class="st1" width="1" height="2"/>
	<rect x="14.2" y="9.4" class="st1" width="1" height="2"/>
	<rect x="14.2" y="11.4" class="st1" width="1" height="2"/>
	<rect x="12.2" y="13.4" class="st1" width="1" height="12"/>
	<rect x="11.2" y="13.4" class="st1" width="1" height="12"/>
</g>
<g>
	<rect x="19.2" y="43.4" class="st1" width="11.5" height="2"/>
	<rect x="18.2" y="41.4" class="st1" width="1" height="2"/>
	<rect x="15.2" y="41.4" class="st1" width="3" height="2"/>
	<rect x="13.2" y="39.4" class="st1" width="1" height="2"/>
	<rect x="13.2" y="37.4" class="st1" width="1" height="2"/>
	<rect x="14.2" y="39.4" class="st1" width="1" height="2"/>
	<rect x="14.2" y="37.4" class="st1" width="1" height="2"/>
	<rect x="12.2" y="25.4" class="st1" width="1" height="12"/>
	<rect x="19.2" y="41.4" class="st2" width="1" height="2"/>
	<rect x="15.2" y="39.4" class="st2" width="1" height="2"/>
	<rect x="15.2" y="37.4" class="st2" width="1" height="2"/>
	<rect x="13.2" y="25.4" class="st2" width="1" height="12"/>
	<rect x="20.2" y="41.4" class="st2" width="1" height="2"/>
	<rect x="16.2" y="39.4" class="st2" width="1" height="2"/>
	<rect x="16.2" y="37.4" class="st2" width="1" height="2"/>
	<rect x="14.2" y="25.4" class="st2" width="1" height="12"/>
	<rect x="11.2" y="25.4" class="st1" width="1" height="12"/>
</g>
<g>
	<rect x="30.7" y="5.4" class="st1" width="11.5" height="2"/>
	<rect x="42.2" y="7.4" class="st1" width="1" height="2"/>
	<rect x="43.2" y="7.4" class="st1" width="3" height="2"/>
	<rect x="47.2" y="9.4" class="st1" width="1" height="2"/>
	<rect x="47.2" y="11.4" class="st1" width="1" height="2"/>
	<rect x="46.2" y="9.4" class="st1" width="1" height="2"/>
	<rect x="46.2" y="11.4" class="st1" width="1" height="2"/>
	<rect x="48.2" y="13.4" class="st1" width="1" height="12"/>
	<rect x="49.2" y="13.4" class="st1" width="1" height="12"/>
</g>
<g>
	<rect x="30.7" y="43.4" class="st1" width="11.5" height="2"/>
	<rect x="42.2" y="41.4" class="st1" width="1" height="2"/>
	<rect x="43.2" y="41.4" class="st1" width="3" height="2"/>
	<rect x="47.2" y="39.4" class="st1" width="1" height="2"/>
	<rect x="47.2" y="37.4" class="st1" width="1" height="2"/>
	<rect x="46.2" y="39.4" class="st1" width="1" height="2"/>
	<rect x="46.2" y="37.4" class="st1" width="1" height="2"/>
	<rect x="48.2" y="25.4" class="st1" width="1" height="12"/>
	<rect x="49.2" y="25.4" class="st1" width="1" height="12"/>
</g>
<rect x="39.7" y="13.4" class="st1" width="1" height="2"/>
<rect x="38.7" y="13.4" class="st1" width="1" height="2"/>
<rect x="39.7" y="15.4" class="st1" width="1" height="2"/>
<rect x="40.7" y="13.4" class="st1" width="1" height="2"/>
<rect x="40.7" y="15.4" class="st1" width="1" height="2"/>
<rect x="38.7" y="15.4" class="st1" width="1" height="2"/>
<rect x="33.2" y="15.4" class="st1" width="1" height="2"/>
<rect x="32.2" y="15.4" class="st1" width="1" height="2"/>
<rect x="33.2" y="17.4" class="st1" width="1" height="2"/>
<rect x="34.2" y="15.4" class="st1" width="1" height="2"/>
<rect x="34.2" y="17.4" class="st1" width="1" height="2"/>
<rect x="35.2" y="17.4" class="st1" width="1" height="2"/>
<rect x="35.2" y="19.4" class="st1" width="1" height="2"/>
<rect x="36.2" y="17.4" class="st1" width="1" height="2"/>
<rect x="36.2" y="19.4" class="st1" width="1" height="2"/>
<rect x="37.2" y="19.4" class="st1" width="1" height="2"/>
<rect x="37.2" y="21.4" class="st1" width="1" height="2"/>
<rect x="38.2" y="19.4" class="st1" width="1" height="2"/>
<rect x="38.2" y="21.4" class="st1" width="1" height="2"/>
<rect x="39.2" y="21.4" class="st1" width="1" height="2"/>
<rect x="38.2" y="23.4" class="st1" width="1" height="2"/>
<rect x="39.2" y="23.4" class="st1" width="1" height="2"/>
<rect x="31.2" y="15.4" class="st1" width="1" height="2"/>
<rect x="30.2" y="15.4" class="st1" width="1" height="2"/>
<rect x="33.2" y="33.4" class="st1" width="1" height="2"/>
<rect x="32.2" y="33.4" class="st1" width="1" height="2"/>
<rect x="33.2" y="31.4" class="st1" width="1" height="2"/>
<rect x="34.2" y="33.4" class="st1" width="1" height="2"/>
<rect x="34.2" y="31.4" class="st1" width="1" height="2"/>
<rect x="35.2" y="31.4" class="st1" width="1" height="2"/>
<rect x="35.2" y="29.4" class="st1" width="1" height="2"/>
<rect x="36.2" y="31.4" class="st1" width="1" height="2"/>
<rect x="36.2" y="29.4" class="st1" width="1" height="2"/>
<rect x="37.2" y="29.4" class="st1" width="1" height="2"/>
<rect x="37.2" y="27.4" class="st1" width="1" height="2"/>
<rect x="38.2" y="29.4" class="st1" width="1" height="2"/>
<rect x="38.2" y="27.4" class="st1" width="1" height="2"/>
<rect x="39.2" y="27.4" class="st1" width="1" height="2"/>
<rect x="38.2" y="25.4" class="st1" width="1" height="2"/>
<rect x="39.2" y="25.4" class="st1" width="1" height="2"/>
<rect x="41.7" y="13.4" class="st2" width="1" height="2"/>
<rect x="41.7" y="15.4" class="st2" width="1" height="2"/>
<rect x="35.2" y="15.4" class="st2" width="1" height="2"/>
<rect x="37.2" y="17.4" class="st2" width="1" height="2"/>
<rect x="39.2" y="19.4" class="st2" width="1" height="2"/>
<rect x="40.2" y="21.4" class="st2" width="1" height="2"/>
<rect x="40.2" y="23.4" class="st2" width="1" height="2"/>
<rect x="35.2" y="33.4" class="st2" width="1" height="2"/>
<rect x="37.2" y="31.4" class="st2" width="1" height="2"/>
<rect x="39.2" y="29.4" class="st2" width="1" height="2"/>
<rect x="40.2" y="27.4" class="st2" width="1" height="2"/>
<rect x="40.2" y="25.4" class="st2" width="1" height="2"/>
<rect x="42.7" y="13.4" class="st2" width="1" height="2"/>
<rect x="42.7" y="15.4" class="st2" width="1" height="2"/>
<rect x="36.2" y="15.4" class="st2" width="1" height="2"/>
<rect x="38.2" y="17.4" class="st2" width="1" height="2"/>
<rect x="40.2" y="19.4" class="st2" width="1" height="2"/>
<rect x="41.2" y="21.4" class="st2" width="1" height="2"/>
<rect x="41.2" y="23.4" class="st2" width="1" height="2"/>
<rect x="36.2" y="33.4" class="st2" width="1" height="2"/>
<rect x="38.2" y="31.4" class="st2" width="1" height="2"/>
<rect x="40.2" y="29.4" class="st2" width="1" height="2"/>
<rect x="41.2" y="27.4" class="st2" width="1" height="2"/>
<rect x="41.2" y="25.4" class="st2" width="1" height="2"/>
<rect x="31.2" y="33.4" class="st1" width="1" height="2"/>
<rect x="30.2" y="33.4" class="st1" width="1" height="2"/>
<rect x="27.2" y="15.4" class="st1" width="1" height="2"/>
<rect x="28.2" y="15.4" class="st1" width="1" height="2"/>
<rect x="27.2" y="17.4" transform="matrix(-1 -4.547486e-11 4.547486e-11 -1 55.3623 36.7377)" class="st1" width="1" height="2"/>
<rect x="26.2" y="15.4" class="st1" width="1" height="2"/>
<rect x="26.2" y="17.4" transform="matrix(-1 -4.547486e-11 4.547486e-11 -1 53.3623 36.7377)" class="st1" width="1" height="2"/>
<rect x="25.2" y="17.4" class="st1" width="1" height="2"/>
<rect x="25.2" y="19.4" transform="matrix(-1 -4.365587e-11 4.365587e-11 -1 51.3623 40.7377)" class="st1" width="1" height="2"/>
<rect x="24.2" y="17.4" class="st1" width="1" height="2"/>
<rect x="24.2" y="19.4" transform="matrix(-1 -4.547486e-11 4.547486e-11 -1 49.3623 40.7377)" class="st1" width="1" height="2"/>
<rect x="23.2" y="19.4" class="st1" width="1" height="2"/>
<rect x="23.2" y="21.4" transform="matrix(-1 -4.547486e-11 4.547486e-11 -1 47.3623 44.7377)" class="st1" width="1" height="2"/>
<rect x="22.2" y="19.4" class="st1" width="1" height="2"/>
<rect x="22.2" y="21.4" transform="matrix(-1 -4.365587e-11 4.365587e-11 -1 45.3623 44.7377)" class="st1" width="1" height="2"/>
<rect x="21.2" y="21.4" class="st1" width="1" height="2"/>
<rect x="22.2" y="23.4" transform="matrix(-1 -4.365587e-11 4.365587e-11 -1 45.3623 48.7377)" class="st1" width="1" height="2"/>
<rect x="21.2" y="23.4" class="st1" width="1" height="2"/>
<rect x="29.2" y="15.4" class="st1" width="1" height="2"/>
<rect x="30.2" y="15.4" class="st1" width="1" height="2"/>
<rect x="27.2" y="33.4" class="st1" width="1" height="2"/>
<rect x="28.2" y="33.4" class="st1" width="1" height="2"/>
<rect x="27.2" y="31.4" transform="matrix(-1 -4.729385e-11 4.729385e-11 -1 55.3623 64.7377)" class="st1" width="1" height="2"/>
<rect x="26.2" y="33.4" class="st1" width="1" height="2"/>
<rect x="26.2" y="31.4" transform="matrix(-1 -4.365587e-11 4.365587e-11 -1 53.3623 64.7377)" class="st1" width="1" height="2"/>
<rect x="25.2" y="31.4" class="st1" width="1" height="2"/>
<rect x="25.2" y="29.4" transform="matrix(-1 -4.365587e-11 4.365587e-11 -1 51.3623 60.7377)" class="st1" width="1" height="2"/>
<rect x="24.2" y="31.4" class="st1" width="1" height="2"/>
<rect x="24.2" y="29.4" transform="matrix(-1 -4.729385e-11 4.729385e-11 -1 49.3623 60.7377)" class="st1" width="1" height="2"/>
<rect x="23.2" y="29.4" class="st1" width="1" height="2"/>
<rect x="23.2" y="27.4" transform="matrix(-1 -4.365587e-11 4.365587e-11 -1 47.3623 56.7377)" class="st1" width="1" height="2"/>
<rect x="22.2" y="29.4" class="st1" width="1" height="2"/>
<rect x="22.2" y="27.4" transform="matrix(-1 -4.365587e-11 4.365587e-11 -1 45.3623 56.7377)" class="st1" width="1" height="2"/>
<rect x="21.2" y="27.4" class="st1" width="1" height="2"/>
<rect x="22.2" y="25.4" transform="matrix(-1 -4.365587e-11 4.365587e-11 -1 45.3623 52.7377)" class="st1" width="1" height="2"/>
<rect x="28.2" y="17.4" transform="matrix(-1 -4.547486e-11 4.547486e-11 -1 57.36 36.7377)" class="st2" width="1" height="2"/>
<rect x="26.2" y="19.4" transform="matrix(-1 -4.365587e-11 4.365587e-11 -1 53.36 40.7377)" class="st2" width="1" height="2"/>
<rect x="24.2" y="21.4" transform="matrix(-1 -4.547486e-11 4.547486e-11 -1 49.36 44.7377)" class="st2" width="1" height="2"/>
<rect x="23.2" y="23.4" transform="matrix(-1 -4.365587e-11 4.365587e-11 -1 47.36 48.7377)" class="st2" width="1" height="2"/>
<rect x="28.2" y="31.4" transform="matrix(-1 -4.729385e-11 4.729385e-11 -1 57.36 64.7377)" class="st2" width="1" height="2"/>
<rect x="26.2" y="29.4" transform="matrix(-1 -4.365587e-11 4.365587e-11 -1 53.36 60.7377)" class="st2" width="1" height="2"/>
<rect x="24.2" y="27.4" transform="matrix(-1 -4.365587e-11 4.365587e-11 -1 49.36 56.7377)" class="st2" width="1" height="2"/>
<rect x="23.2" y="25.4" transform="matrix(-1 -4.365587e-11 4.365587e-11 -1 47.36 52.7377)" class="st2" width="1" height="2"/>
<rect x="29.2" y="17.4" transform="matrix(-1 -4.547486e-11 4.547486e-11 -1 59.36 36.7377)" class="st2" width="1" height="2"/>
<rect x="27.2" y="19.4" transform="matrix(-1 -4.365587e-11 4.365587e-11 -1 55.36 40.7377)" class="st2" width="1" height="2"/>
<rect x="25.2" y="21.4" transform="matrix(-1 -4.547486e-11 4.547486e-11 -1 51.36 44.7377)" class="st2" width="1" height="2"/>
<rect x="24.2" y="23.4" transform="matrix(-1 -4.365587e-11 4.365587e-11 -1 49.36 48.7377)" class="st2" width="1" height="2"/>
<rect x="29.2" y="31.4" transform="matrix(-1 -4.729385e-11 4.729385e-11 -1 59.36 64.7377)" class="st2" width="1" height="2"/>
<rect x="27.2" y="29.4" transform="matrix(-1 -4.365587e-11 4.365587e-11 -1 55.36 60.7377)" class="st2" width="1" height="2"/>
<rect x="25.2" y="27.4" transform="matrix(-1 -4.365587e-11 4.365587e-11 -1 51.36 56.7377)" class="st2" width="1" height="2"/>
<rect x="24.2" y="25.4" transform="matrix(-1 -4.365587e-11 4.365587e-11 -1 49.36 52.7377)" class="st2" width="1" height="2"/>
<rect x="21.2" y="25.4" class="st1" width="1" height="2"/>
<rect x="29.2" y="33.4" class="st1" width="1" height="2"/>
<rect x="30.2" y="33.4" class="st1" width="1" height="2"/>
<rect x="19.2" y="7.4" class="st2" width="1" height="2"/>
<rect x="15.2" y="9.4" class="st2" width="1" height="2"/>
<rect x="15.2" y="11.4" class="st2" width="1" height="2"/>
<rect x="13.2" y="13.4" class="st2" width="1" height="12"/>
<rect x="20.2" y="7.4" class="st2" width="1" height="2"/>
<rect x="16.2" y="9.4" class="st2" width="1" height="2"/>
<rect x="16.2" y="11.4" class="st2" width="1" height="2"/>
<rect x="14.2" y="13.4" class="st2" width="1" height="12"/>
</svg>
