<?xml version="1.0" encoding="utf-8"?>
<!-- Generator: Adobe Illustrator 27.7.0, SVG Export Plug-In . SVG Version: 6.00 Build 0)  -->
<svg version="1.1" id="Capa_1" xmlns="http://www.w3.org/2000/svg" xmlns:xlink="http://www.w3.org/1999/xlink" x="0px" y="0px"
	 viewBox="0 0 20.1 20.1" style="enable-background:new 0 0 20.1 20.1;" xml:space="preserve">
<style type="text/css">
	.st0{fill:#1856A4;}
</style>
<path class="st0" d="M2.5,8.7v1.9h8V8.7H2.5z"/>
<path class="st0" d="M10.5,8.7v1.9h8V8.7H10.5z"/>
<g>
	<g>
		<g>
			<g>
				<g>
					<rect x="3.5" y="7.7" class="st0" width="1" height="2"/>
				</g>
				<g>
					<rect x="2.5" y="7.7" class="st0" width="1" height="2"/>
				</g>
			</g>
			<g>
				<g>
					<rect x="5.5" y="5.7" class="st0" width="1" height="2"/>
				</g>
				<g>
					<rect x="4.5" y="5.7" class="st0" width="1" height="2"/>
				</g>
			</g>
			<g>
				<g>
					<rect x="7.5" y="3.7" class="st0" width="1" height="2"/>
				</g>
				<g>
					<rect x="6.5" y="3.7" class="st0" width="1" height="2"/>
				</g>
			</g>
			<g>
				<g>
					<rect x="9.5" y="1.6" class="st0" width="1" height="2"/>
				</g>
				<g>
					<rect x="8.5" y="1.6" class="st0" width="1" height="2"/>
				</g>
			</g>
		</g>
	</g>
	<g>
		<g>
			<g>
				<g>
					<rect x="8.6" y="15.7" class="st0" width="1" height="2"/>
				</g>
				<g>
					<rect x="9.5" y="15.7" class="st0" width="1" height="2"/>
				</g>
			</g>
			<g>
				<g>
					<rect x="6.5" y="13.7" class="st0" width="1" height="2"/>
				</g>
				<g>
					<rect x="7.5" y="13.7" class="st0" width="1" height="2"/>
				</g>
			</g>
			<g>
				<g>
					<rect x="4.5" y="11.7" class="st0" width="1" height="2"/>
				</g>
				<g>
					<rect x="5.5" y="11.7" class="st0" width="1" height="2"/>
				</g>
			</g>
			<g>
				<g>
					<rect x="2.5" y="9.7" class="st0" width="1" height="2"/>
				</g>
				<g>
					<rect x="3.5" y="9.7" class="st0" width="1" height="2"/>
				</g>
			</g>
		</g>
	</g>
</g>
</svg>
