<?xml version="1.0" encoding="utf-8"?>
<!-- Generator: Adobe Illustrator 27.7.0, SVG Export Plug-In . SVG Version: 6.00 Build 0)  -->
<svg version="1.1" id="Capa_1" xmlns="http://www.w3.org/2000/svg" xmlns:xlink="http://www.w3.org/1999/xlink" x="0px" y="0px"
	 viewBox="0 0 60 52" style="enable-background:new 0 0 60 52;" xml:space="preserve">
<style type="text/css">
	.st0{fill:none;}
	.st1{fill:#FFFFFF;}
	.st2{opacity:0.59;fill:#FE8701;}
	.st3{fill:#FE8701;}
	.st4{fill:#1D1D1B;}
</style>
<rect class="st0" width="60" height="52"/>
<polygon class="st1" points="54.9,13.2 56,16.9 56,47.1 53.2,47.7 52.4,50.5 10.1,48.7 7.8,44.9 5.7,44.5 5.7,4.9 46.6,4.9 "/>
<rect x="44.2" y="0.1" class="st2" width="1.6" height="3.2"/>
<g>
	<polygon class="st3" points="28,0.1 27.1,0.1 26.4,0.1 24.8,0.1 24.8,3.3 23.1,3.3 23.1,6.5 24.8,6.5 24.8,9.8 26.4,9.8 28,9.8 
		28,6.5 26.4,6.5 26.4,3.3 27.1,3.3 28,3.3 29.2,3.3 31.3,3.3 31.3,0.1 29.2,0.1 	"/>
	<polygon class="st3" points="41.4,3.3 42.6,3.3 45.9,3.3 45.9,0.1 42.6,0.1 41.4,0.1 41,0.1 39.4,0.1 39.4,3.3 37.7,3.3 37.7,6.5 
		39.4,6.5 39.4,9.8 41,9.8 42.6,9.8 42.6,6.5 41,6.5 41,3.3 	"/>
	<polygon class="st3" points="13.4,0.1 12.9,0.1 11.8,0.1 10.1,0.1 10.1,3.3 8.5,3.3 8.5,6.5 10.2,6.5 10.2,9.8 11.8,9.8 13.4,9.8 
		13.4,6.5 11.8,6.5 11.8,3.3 12.9,3.3 13.4,3.3 14.8,3.3 16.6,3.3 16.6,0.1 14.8,0.1 	"/>
</g>
<g>
	<rect x="24.8" y="16.3" class="st4" width="1.6" height="3.2"/>
	<polygon class="st4" points="28,9.8 29.6,9.8 29.6,6.5 37.7,6.5 37.7,3.3 26.4,3.3 26.4,6.5 28,6.5 	"/>
	<rect x="23.1" y="6.5" class="st4" width="1.6" height="3.2"/>
	<rect x="37.7" y="6.5" class="st4" width="1.6" height="3.2"/>
	<polygon class="st4" points="13.4,9.8 15,9.8 15,6.5 23.1,6.5 23.1,3.3 11.8,3.3 11.8,6.5 13.4,6.5 	"/>
	<rect x="8.5" y="6.5" class="st4" width="1.6" height="3.2"/>
	<path class="st4" d="M55.6,13V9.8h-3.2V6.5h-3.2V3.3h-3.2H41v3.2h1.6v3.2h1.6V6.5h1.6v35.7h-39V6.5h1.6V3.3H6.9H3.7v42.2h3.2v3.2
		h3.2v-3.2h1.6v3.2h-1.6V52h42.2H54v-3.2h3.2v-3.2V13H55.6z M15,48.7h-1.6v-3.2H15V48.7z M18.3,48.7h-1.6v-3.2h1.6V48.7z M21.5,48.7
		h-1.6v-3.2h1.6V48.7z M24.8,48.7h-1.6v-3.2h1.6V48.7z M28,48.7h-1.6v-3.2H28V48.7z M31.3,48.7h-1.6v-3.2h1.6V48.7z M34.5,48.7h-1.6
		v-3.2h1.6V48.7z M37.7,48.7h-1.6v-3.2h1.6V48.7z M41,48.7h-1.6v-3.2H41V48.7z M44.2,48.7h-1.6v-3.2h1.6V48.7z M47.5,48.7h-1.6v-3.2
		h1.6V48.7z M50.7,48.7h-1.6v-3.2h1.6V48.7z M50.7,42.3h-1.6V9.8h1.6V42.3z M54,45.5h-1.6v-3.2V13H54V45.5z"/>
	<path class="st4" d="M10.2,32.5H8.5v3.2h1.6V39h1.6h1.6H15h1.6v-3.2h1.6h1.6v-3.2h1.6h1.6v-3.2h1.6h1.6H28h6.5v6.5h1.6V39h3.2h3.2
		v-3.2h-3.2v-3.2h-1.6V13h-1.6h-1.6v3.2h-1.6V13h-1.6h-1.6h0H28h-1.6v3.2H28h1.6h0h1.6v3.2h-1.6h0H28v3.2h-1.6h-1.6V26h-1.6h-1.6
		v3.2h-1.6h-1.6v3.2h-1.6H15v3.2h-1.6h-1.6v-3.2h1.6v-3.2h-1.6h-1.6V32.5z M29.6,22.8h1.6h1.6v-3.2h1.6V26h-4.9V22.8z"/>
</g>
</svg>
