<?xml version="1.0" encoding="utf-8"?>
<!-- Generator: Adobe Illustrator 27.7.0, SVG Export Plug-In . SVG Version: 6.00 Build 0)  -->
<svg version="1.1" id="Capa_1" xmlns="http://www.w3.org/2000/svg" xmlns:xlink="http://www.w3.org/1999/xlink" x="0px" y="0px"
	 viewBox="0 0 60 52" style="enable-background:new 0 0 60 52;" xml:space="preserve">
<style type="text/css">
	.st0{fill:#FFFFFF;}
	.st1{fill:#1D1D1B;}
	.st2{fill:#FE8701;}
	.st3{fill:#000021;}
	.st4{fill:none;}
</style>
<polygon class="st0" points="52.3,8.8 54.2,10.3 54.7,11.6 54.6,12.3 58.6,12.3 59.3,9.9 58.3,8.1 57.7,6.1 11.4,6.1 10.4,7.1 
	8.8,10.9 8.8,20.5 5.2,30.4 4.1,30.9 4.1,31.4 1.3,41.4 1.3,43.1 43.7,45.7 49.9,44.5 50.1,38.8 46.8,38.5 46.4,39.9 45.1,39.5 
	42.3,38.5 49.2,13.2 "/>
<polygon class="st1" points="35.5,17.7 35.5,20.5 30,20.5 30,23.2 28.7,23.2 28.7,25.9 27.3,25.9 27.3,28.6 25.9,28.6 25.9,31.3 
	30,31.3 30,34.1 27.3,34.1 27.3,36.8 24.5,36.8 24.5,39.5 21.8,39.5 21.8,42.3 19.1,42.3 19.1,39.5 17.7,39.5 17.7,36.8 16.3,36.8 
	16.3,34.1 15,34.1 15,31.3 20.5,31.3 20.5,28.6 21.8,28.6 21.8,25.9 23.2,25.9 23.2,23.2 24.5,23.2 24.5,20.5 20.4,20.5 20.4,17.7 
	23.2,17.7 23.2,15 25.9,15 25.9,12.3 28.6,12.3 28.6,9.6 31.4,9.6 31.4,12.3 32.7,12.3 32.7,15 34.1,15 34.1,17.7 "/>
<g>
	<rect x="2.7" y="34.1" class="st2" width="1.4" height="2.7"/>
	<rect x="4" y="31.4" class="st2" width="1.4" height="2.7"/>
	<rect x="6.8" y="23.2" class="st2" width="1.4" height="2.7"/>
	<rect x="9.5" y="9.5" class="st2" width="1.4" height="2.7"/>
	<rect x="5.4" y="28.6" class="st2" width="1.4" height="2.7"/>
	<rect x="8.1" y="17.7" class="st2" width="1.4" height="2.7"/>
	<rect x="10.9" y="6.8" class="st2" width="1.4" height="2.7"/>
	<rect x="49.2" y="9.5" class="st2" width="1.4" height="2.7"/>
	<rect x="53.2" y="9.5" class="st2" width="1.4" height="2.7"/>
	<rect x="57.3" y="9.5" class="st2" width="1.4" height="2.7"/>
	<rect x="49.2" y="15" class="st2" width="1.4" height="2.7"/>
	<rect x="50.5" y="6.8" class="st2" width="1.4" height="2.7"/>
	<rect x="55.9" y="6.8" class="st2" width="1.4" height="2.7"/>
	<rect x="43.7" y="31.4" class="st2" width="1.4" height="2.7"/>
	<rect x="45" y="28.6" class="st2" width="1.4" height="2.7"/>
	<rect x="46.4" y="25.9" class="st2" width="1.4" height="2.7"/>
	<rect x="47.8" y="20.5" class="st2" width="1.4" height="2.7"/>
	<rect x="5.4" y="42.3" class="st2" width="1.4" height="2.7"/>
	<rect x="8.1" y="42.3" class="st2" width="1.4" height="2.7"/>
	<rect x="10.9" y="42.3" class="st2" width="1.4" height="2.7"/>
	<rect x="13.6" y="42.3" class="st2" width="1.4" height="2.7"/>
	<rect x="16.3" y="42.3" class="st2" width="1.4" height="2.7"/>
	<rect x="19.1" y="42.3" class="st2" width="1.4" height="2.7"/>
	<rect x="21.8" y="42.3" class="st2" width="1.4" height="2.7"/>
	<rect x="24.5" y="42.3" class="st2" width="1.4" height="2.7"/>
	<rect x="27.3" y="42.3" class="st2" width="1.4" height="2.7"/>
	<rect x="30" y="42.3" class="st2" width="1.4" height="2.7"/>
	<rect x="32.8" y="42.3" class="st2" width="1.4" height="2.7"/>
	<rect x="35.5" y="42.3" class="st2" width="1.4" height="2.7"/>
	<rect x="38.2" y="42.3" class="st2" width="1.4" height="2.7"/>
	<rect x="1.3" y="36.8" class="st2" width="1.4" height="5.4"/>
	<rect x="2.7" y="42.3" class="st2" width="1.4" height="2.7"/>
	<rect x="45" y="39.5" class="st2" width="1.4" height="2.7"/>
	<polygon class="st2" points="49.1,42.3 47.8,42.3 47.8,45 49.1,45 49.1,42.3 50.5,42.3 50.5,39.5 49.1,39.5 	"/>
	<polygon class="st2" points="43.7,36.8 43.7,45 41,45 41,39.5 42.3,39.5 42.3,36.8 	"/>
</g>
<g>
	<rect x="8.1" y="9.5" class="st3" width="1.3" height="8.2"/>
	<rect x="6.8" y="17.7" class="st3" width="1.4" height="5.5"/>
	<rect x="5.4" y="23.2" class="st3" width="1.4" height="5.5"/>
	<rect x="4" y="28.6" class="st3" width="1.4" height="2.7"/>
	<rect x="2.7" y="31.4" class="st3" width="1.4" height="2.7"/>
	<rect x="54.6" y="9.5" class="st3" width="1.4" height="2.7"/>
	<rect x="54.6" y="12.3" class="st3" width="4.1" height="2.7"/>
	<polygon class="st3" points="60,6.8 60,12.3 58.6,12.3 58.6,9.5 57.3,9.5 57.3,6.8 53.2,6.8 53.2,9.5 51.9,9.5 51.9,6.8 10.8,6.8 
		10.8,9.5 9.5,9.5 9.5,6.8 10.8,6.8 10.8,4.1 58.6,4.1 58.6,6.8 	"/>
	<rect x="50.5" y="9.5" class="st3" width="1.3" height="8.2"/>
	<rect x="49.2" y="17.7" class="st3" width="1.4" height="5.5"/>
	<rect x="47.8" y="23.2" class="st3" width="1.4" height="5.5"/>
	<rect x="46.4" y="28.6" class="st3" width="1.4" height="2.7"/>
	<rect x="45.1" y="31.4" class="st3" width="1.4" height="2.7"/>
	<rect x="43.7" y="34.1" class="st3" width="1.4" height="5.4"/>
	<rect x="1.3" y="34.1" class="st3" width="1.4" height="2.7"/>
	<rect x="1.3" y="42.3" class="st3" width="1.4" height="2.7"/>
	<rect x="42.3" y="39.5" class="st3" width="1.4" height="2.7"/>
	<polygon class="st3" points="50.5,42.3 50.5,47.7 2.7,47.7 2.7,45 43.7,45 43.7,42.3 45,42.3 45,45 49.1,45 49.1,42.3 	"/>
	<polygon class="st3" points="51.9,39.5 51.9,42.3 50.5,42.3 50.5,39.5 47.8,39.5 47.8,42.3 46.4,42.3 46.4,36.8 50.5,36.8 
		50.5,39.5 	"/>
	<rect x="-0.1" y="36.8" class="st3" width="1.4" height="5.4"/>
</g>
<rect x="20.5" y="42.3" class="st0" width="1.4" height="2.7"/>
<polygon class="st0" points="49.2,9.5 49.2,12.3 50.5,12.3 50.5,15 49.2,15 49.2,20.5 47.8,20.5 47.8,25.9 46.4,25.9 46.4,28.6 
	47.8,28.6 47.8,28.6 45,28.6 45,31.4 43.7,31.4 43.7,36.8 42.3,36.8 42.3,39.5 41,39.5 41,45 39.6,45 39.6,42.3 38.2,42.3 38.2,45 
	36.8,45 36.8,42.3 35.5,42.3 35.5,45 34.1,45 34.1,42.3 32.8,42.3 32.8,45 31.4,45 31.4,42.3 30,42.3 30,45 28.7,45 28.7,42.3 
	27.3,42.3 27.3,45 25.9,45 25.9,42.3 24.5,42.3 24.5,45 23.2,45 23.2,42.3 21.8,42.3 21.8,39.5 24.5,39.5 24.5,36.8 27.3,36.8 
	27.3,34.1 30,34.1 30,31.3 25.9,31.3 25.9,28.6 27.3,28.6 27.3,25.9 28.7,25.9 28.7,23.2 30,23.2 30,20.5 35.5,20.5 35.5,17.7 
	34.1,17.7 34.1,15 32.7,15 32.7,12.3 31.4,12.3 31.4,9.6 28.6,9.6 28.6,12.3 25.9,12.3 25.9,15 23.2,15 23.2,17.7 20.4,17.7 
	20.4,20.5 24.5,20.5 24.5,23.2 23.2,23.2 23.2,25.9 21.8,25.9 21.8,28.6 20.5,28.6 20.5,31.3 15,31.3 15,34.1 16.3,34.1 16.3,36.8 
	17.7,36.8 17.7,39.5 19.1,39.5 19.1,45 17.7,45 17.7,42.3 16.3,42.3 16.3,45 15,45 15,42.3 13.6,42.3 13.6,45 12.2,45 12.2,42.3 
	10.9,42.3 10.9,45 9.5,45 9.5,42.3 8.1,42.3 8.1,45 6.8,45 6.8,42.3 5.4,42.3 5.4,45 4,45 4,42.3 2.7,42.3 2.7,36.8 4,36.8 4,34.1 
	5.4,34.1 5.4,31.4 6.8,31.4 6.8,25.9 8.1,25.9 8.1,20.4 9.5,20.4 9.5,17.7 9.5,17.7 9.5,12.3 10.9,12.3 10.9,9.5 12.2,9.5 12.2,6.8 
	50.5,6.8 50.5,9.5 "/>
<rect class="st4" width="60" height="52"/>
</svg>
