<?xml version="1.0" encoding="utf-8"?>
<!-- Generator: Adobe Illustrator 27.7.0, SVG Export Plug-In . SVG Version: 6.00 Build 0)  -->
<svg version="1.1" id="Capa_1" xmlns="http://www.w3.org/2000/svg" xmlns:xlink="http://www.w3.org/1999/xlink" x="0px" y="0px"
	 viewBox="0 0 35 30.1" style="enable-background:new 0 0 35 30.1;" xml:space="preserve">
<style type="text/css">
	.st0{fill:#0A0D1C;}
	.st1{fill:#F18519;}
	.st2{fill:#FFFFFF;}
	.st3{fill:#1856A4;}
</style>
<g>
	<polygon class="st0" points="35,4 35,30.1 0,30.1 0,0 33,0 33,2 34,2 34,4 	"/>
	<rect x="9" class="st1" width="17" height="10"/>
	<polygon class="st2" points="29,30.1 6,30.1 6,14 28,14 28,16 29,16 	"/>
	<rect x="2" y="26" class="st3" width="2" height="2"/>
	<rect x="19.1" y="2" class="st0" width="4" height="6"/>
	<g>
		<rect x="7" y="26" class="st0" width="1" height="2"/>
		<rect x="8" y="26" class="st1" width="1" height="2"/>
		<rect x="9" y="26" class="st0" width="1" height="2"/>
	</g>
	<g>
		<rect x="8" y="24" class="st0" width="1" height="2"/>
		<rect x="9" y="24" class="st1" width="1" height="2"/>
		<rect x="10" y="24" class="st0" width="1" height="2"/>
	</g>
	<g>
		<rect x="9" y="22" class="st0" width="1" height="2"/>
		<rect x="10" y="22" class="st1" width="1" height="2"/>
		<rect x="11" y="22" class="st0" width="1" height="2"/>
	</g>
	<g>
		<rect x="10" y="20" class="st0" width="1" height="2"/>
		<rect x="11" y="20" class="st1" width="1" height="2"/>
		<rect x="12" y="20" class="st0" width="1" height="2"/>
	</g>
	<g>
		<rect x="11.1" y="18" class="st0" width="1" height="2"/>
		<rect x="12.1" y="18" class="st1" width="1" height="2"/>
		<rect x="13.1" y="18" class="st0" width="1" height="2"/>
	</g>
	<g>
		<rect x="12.1" y="16" class="st0" width="1" height="2"/>
		<rect x="13.1" y="16" class="st1" width="1" height="2"/>
		<rect x="14.1" y="16" class="st0" width="1" height="2"/>
	</g>
	<g>
		<rect x="13.1" y="14" class="st0" width="1" height="2"/>
		<rect x="14.1" y="14" class="st1" width="1" height="2"/>
		<rect x="15.1" y="14" class="st0" width="1" height="2"/>
	</g>
	<g>
		<rect x="11" y="26" class="st0" width="1" height="2"/>
		<rect x="12" y="26" class="st1" width="1" height="2"/>
		<rect x="13.1" y="26" class="st0" width="1" height="2"/>
	</g>
	<g>
		<rect x="12.1" y="24" class="st0" width="1" height="2"/>
		<rect x="13.1" y="24" class="st1" width="1" height="2"/>
		<rect x="14.1" y="24" class="st0" width="1" height="2"/>
	</g>
	<g>
		<rect x="13.1" y="22" class="st0" width="1" height="2"/>
		<rect x="14.1" y="22" class="st1" width="1" height="2"/>
		<rect x="15.1" y="22" class="st0" width="1" height="2"/>
	</g>
	<g>
		<rect x="14.1" y="20" class="st0" width="1" height="2"/>
		<rect x="15.1" y="20" class="st1" width="1" height="2"/>
		<rect x="16.1" y="20" class="st0" width="1" height="2"/>
	</g>
	<g>
		<rect x="15.1" y="18" class="st0" width="1" height="2"/>
		<rect x="16.1" y="18" class="st1" width="1" height="2"/>
		<rect x="17.1" y="18" class="st0" width="1" height="2"/>
	</g>
	<g>
		<rect x="16.1" y="16" class="st0" width="1" height="2"/>
		<rect x="17.1" y="16" class="st1" width="1" height="2"/>
		<rect x="18.1" y="16" class="st0" width="1" height="2"/>
	</g>
	<g>
		<rect x="17.1" y="14" class="st0" width="1" height="2"/>
		<rect x="18.1" y="14" class="st1" width="1" height="2"/>
		<rect x="19.1" y="14" class="st0" width="1" height="2"/>
	</g>
	<g>
		<rect x="21.1" y="14" class="st0" width="1" height="2"/>
		<rect x="22.1" y="14" class="st3" width="1" height="2"/>
		<rect x="23.1" y="14" class="st0" width="1" height="2"/>
	</g>
	<g>
		<rect x="22.1" y="16" class="st0" width="1" height="2"/>
		<rect x="23.1" y="16" class="st3" width="1" height="2"/>
		<rect x="24.1" y="16" class="st0" width="1" height="2"/>
	</g>
	<g>
		<rect x="23.1" y="18" class="st0" width="1" height="2"/>
		<rect x="24.1" y="18" class="st3" width="1" height="2"/>
		<rect x="25.1" y="18" class="st0" width="1" height="2"/>
	</g>
	<g>
		<rect x="24.1" y="20" class="st0" width="1" height="2"/>
		<rect x="25.1" y="20" class="st3" width="1" height="2"/>
		<rect x="26.1" y="20" class="st0" width="1" height="2"/>
	</g>
	<g>
		<rect x="19.1" y="16" class="st3" width="1" height="2"/>
		<rect x="20.1" y="16" class="st0" width="1" height="2"/>
	</g>
	<g>
		<rect x="19.1" y="18" class="st0" width="1" height="2"/>
		<rect x="20.1" y="18" class="st3" width="1" height="2"/>
		<rect x="21.1" y="18" class="st0" width="1" height="2"/>
	</g>
	<g>
		<rect x="20.1" y="20" class="st0" width="1" height="2"/>
		<rect x="21.1" y="20" class="st3" width="1" height="2"/>
		<rect x="22.1" y="20" class="st0" width="1" height="2"/>
	</g>
</g>
</svg>
