<?xml version="1.0" encoding="utf-8"?>
<!-- Generator: Adobe Illustrator 27.7.0, SVG Export Plug-In . SVG Version: 6.00 Build 0)  -->
<svg version="1.1" id="Capa_1" xmlns="http://www.w3.org/2000/svg" xmlns:xlink="http://www.w3.org/1999/xlink" x="0px" y="0px"
	 viewBox="0 0 60 52" style="enable-background:new 0 0 60 52;" xml:space="preserve">
<path d="M41.2,43.3c0.2-1,0.3-2.1,0.3-3.5c0-1.4-0.1-2.5-0.3-3.5h-3.5c0.2-1,0.3-2.1,0.3-3.5c0-1.4-0.1-2.5-0.3-3.5h-2.6
	c0.2-1,0.3-2.1,0.3-3.5c0-1.4-0.1-2.5-0.3-3.5h2.6c0.2-1,0.3-2.1,0.3-3.5c0-1.4-0.1-2.5-0.3-3.5h3.5c0.2-1,0.3-2.1,0.3-3.5
	c0-1.4-0.1-2.5-0.3-3.5h2.6c0.2-1,0.3-2.1,0.3-3.5c0-1.4-0.1-2.5-0.3-3.5h-6.9c-0.2,0.9-0.3,2.1-0.3,3.5c0,1.3,0.1,2.5,0.3,3.5h-2.6
	c-0.2,0.9-0.3,2.1-0.3,3.5c0,1.3,0.1,2.5,0.3,3.5h-1.7c-0.2,0.9-0.3,2.1-0.3,3.5c0,1.3,0.1,2.5,0.3,3.5h-5.2c0.2-1,0.3-2.1,0.3-3.5
	c0-1.4-0.1-2.5-0.3-3.5h-1.7c0.2-1,0.3-2.1,0.3-3.5c0-1.4-0.1-2.5-0.3-3.5h-2.6c0.2-1,0.3-2.1,0.3-3.5c0-1.4-0.1-2.5-0.3-3.5h-6.9
	c-0.2,0.9-0.3,2.1-0.3,3.5c0,1.3,0.1,2.5,0.3,3.5h2.6c-0.2,0.9-0.3,2.1-0.3,3.5c0,1.3,0.1,2.5,0.3,3.5h3.5c-0.2,0.9-0.3,2.1-0.3,3.5
	c0,1.3,0.1,2.5,0.3,3.5h2.6c-0.2,0.9-0.3,2.1-0.3,3.5c0,1.3,0.1,2.5,0.3,3.5h-2.6c-0.2,0.9-0.3,2.1-0.3,3.5c0,1.3,0.1,2.5,0.3,3.5
	h-3.5c-0.2,0.9-0.3,2.1-0.3,3.5c0,1.3,0.1,2.5,0.3,3.5h-2.6c-0.2,0.9-0.3,2.1-0.3,3.5c0,1.3,0.1,2.5,0.3,3.5h6.9
	c0.2-1,0.3-2.1,0.3-3.5c0-1.4-0.1-2.5-0.3-3.5h2.6c0.2-1,0.3-2.1,0.3-3.5c0-1.4-0.1-2.5-0.3-3.5h1.7c0.2-1,0.3-2.1,0.3-3.5
	c0-1.4-0.1-2.5-0.3-3.5h5.2c-0.2,0.9-0.3,2.1-0.3,3.5c0,1.3,0.1,2.5,0.3,3.5h1.7c-0.2,0.9-0.3,2.1-0.3,3.5c0,1.3,0.1,2.5,0.3,3.5
	h2.6c-0.2,0.9-0.3,2.1-0.3,3.5c0,1.3,0.1,2.5,0.3,3.5h6.9c0.2-1,0.3-2.1,0.3-3.5c0-1.4-0.1-2.5-0.3-3.5H41.2z"/>
</svg>
