<?xml version="1.0" encoding="utf-8"?>
<!-- Generator: Adobe Illustrator 27.7.0, SVG Export Plug-In . SVG Version: 6.00 Build 0)  -->
<svg version="1.1" id="Capa_2" xmlns="http://www.w3.org/2000/svg" xmlns:xlink="http://www.w3.org/1999/xlink" x="0px" y="0px"
	 viewBox="0 0 399.5 403.38" style="enable-background:new 0 0 399.5 403.38;" xml:space="preserve">
<path d="M46,85.02c-0.16,0.48-0.25,0.79-0.28,0.89C45.72,85.69,45.82,85.39,46,85.02z"/>
<path d="M261.91,24.59c-35.26,0-55.02,31.81-79.86,31.81c-22.7,0-41.57-27.12-76.92-27.12c-67.83,0-65.5,77.07-67.83,84.3
	c2.62-5.36,17.3-52.93,49.71-52.93c26.05,0,41.45,27.54,66.01,27.54c18.79,0,27.64-4.88,34.45-8.77
	c-33.96,41.44-65.68,81.41-88.54,107.72C55.9,236.65,37.3,255.34,37.3,289.45c0,60.65,57.54,92.69,111.12,92.69
	c80.74,0,136.44-33.97,176.55-84.51c29.48-37.17,50.19-100.61,50.19-140.83C375.16,82.94,341.91,24.59,261.91,24.59z M193.81,341.17
	c-63.72,0-115.97-20.84-115.97-65.9c0-32.7,30.64-64.69,42.92-79.95l89.27-111.61v191.55l28.16-11.87V52.87
	c47.67,0,103.72,51.3,103.72,140.21C341.91,295.03,247.4,341.17,193.81,341.17z"/>
<path d="M7.35,231.07c0-6.14,6.14-79.53,71.44-79.53c41.67,0,56.37,37.12,103.26,37.12c49.11,0,116.65-48.41,116.65-79.1
	c0,32.93-15.3,125.15-139.79,125.15c-45.79,0-61.42-32.19-94.63-32.19C37.3,202.51,7.35,220.46,7.35,231.07z"/>
<path d="M151.72,305.12c0-9.21,12.84-53.15,54.84-53.15c15.35,0,37.58,11.16,54.6,11.16c18.74,0,40.13-16.52,40.13-22.38
	c0,4.74-7.26,55.67-56.39,55.67c-15.63,0-28.07-9.34-47.56-9.34C170.32,287.07,151.72,305.12,151.72,305.12z"/>
<rect x="206.33" y="52.87" width="43.66" height="210.53"/>
</svg>
