<?xml version="1.0" encoding="utf-8"?>
<!-- Generator: Adobe Illustrator 27.7.0, SVG Export Plug-In . SVG Version: 6.00 Build 0)  -->
<svg version="1.1" id="Capa_2_00000166661527302728098440000007186347267091899068_"
	 xmlns="http://www.w3.org/2000/svg" xmlns:xlink="http://www.w3.org/1999/xlink" x="0px" y="0px" viewBox="0 0 399.5 403.4"
	 style="enable-background:new 0 0 399.5 403.4;" xml:space="preserve">
<style type="text/css">
	.st0{fill:#394049;}
</style>
<g>
	<path class="st0" d="M68.4,93.7c0-0.1,0.1-0.4,0.3-0.9C68.5,93.2,68.4,93.5,68.4,93.7z"/>
	<path class="st0" d="M261.9,24.6c-35.3,0-47.7,31.8-72.6,31.8c-22.7,0-23.1-16.2-58.4-16.2c-43.5,0-59.9,45.4-62.2,52.6
		c2.6-5.4,22-24.3,41-24.3c26.1,0,27.9,17.5,52.5,17.5c10.1,0,18.5-2.6,25.3-6.5c-32.2,39.3-82.8,100.8-88.1,107.2
		c-6.3-1.8-13.1-3-20.6-3c-44.5,0-67.5,37.1-71,48c3.9-9.6,31.8-17.6,56.5-17.6c4.3,0,8.3,0.5,12.2,1.3
		c-17.2,20.2-33.1,49.2-33.1,74.1c0,60.6,51.5,87.1,105.1,87.1c76.1,0,129.8-35,169.9-85.5c29.5-37.2,48.6-94,48.6-134.2
		C366.9,82.9,325.1,24.6,261.9,24.6z M110.5,190.3L210,68.1v139.2c-9.9,3.9-19.5,6.2-28,6.2c-32.3,0-50.8-14.2-71.8-23
		C110.4,190.4,110.4,190.4,110.5,190.3z M193.8,341.2c-63.7,0-124.7-19.5-124.7-64.6c0-30.8,13.3-48.1,18-58.4
		c19.4,8.3,38.9,24.3,71.8,24.3c18.5,0,35.6-4.2,51.1-11.2v20.8c-1.2-0.1-2.4-0.2-3.5-0.2c-22.6,0-39.6,29.9-39.6,39.1
		c0,0,17.9-10.9,30.4-10.9c14.8,0,26.7,9.5,42.3,9.5c26.8,0,41.4-26.9,43.5-34.8c-1.7,5-11.8,8.2-22,8.2c-7.1,0-15-1.9-23-4.2v-44.4
		c38-28.5,60.5-71.4,60.5-92.4c0,19.2-28.5,50.1-60.5,70.5V52.9c32.5,4.9,103.7,51.3,103.7,140.2C341.9,295,247.4,341.2,193.8,341.2
		z"/>
	<path class="st0" d="M7.8,231.6c-0.2,0.6-0.4,1.1-0.4,1.7C7.5,232.8,7.6,232.2,7.8,231.6z"/>
	<path class="st0" d="M7.4,233.3c0,0.2-0.1,0.4-0.1,0.6C7.3,233.6,7.4,233.5,7.4,233.3z"/>
	<path class="st0" d="M283.1,254.9c0.2-0.5,0.3-1,0.3-1.5C283.4,253.7,283.3,254.2,283.1,254.9z"/>
</g>
</svg>
